<?xml version="1.0" encoding="UTF-8" standalone="no"?>
<svg width="85px" height="76px" viewBox="0 0 85 76" version="1.1" xmlns="http://www.w3.org/2000/svg" xmlns:xlink="http://www.w3.org/1999/xlink">
    <!-- Generator: sketchtool 3.8.3 (29802) - http://www.bohemiancoding.com/sketch -->
    <title>197D0C66-595C-4D53-AF9F-3B190E684621</title>
    <desc>Created with sketchtool.</desc>
    <defs></defs>
    <g id="Employee-Deductions---401k,-403b,-457,-HSA,-Roth-401k,-Roth-403b,-Simple-IRA" stroke="none" stroke-width="1" fill="none" fill-rule="evenodd">
        <g id="401k-Employee-Deduction-Catch-Up" transform="translate(-677.000000, -112.000000)" stroke-width="1.35">
            <g id="Group" transform="translate(678.000000, 113.000000)">
                <g id="Group-2" transform="translate(48.000000, 42.000000)" stroke="#56C40B" fill="#E8F6DE">
                    <path d="M18.6592475,22.4590542 L18.6592475,31.3171857 L34.6846847,15.8154556 L18.6592475,0.31372549 L18.6592475,9.17185698 L0.909343519,9.17185698 L0.909343519,22.4590542 L18.6592475,22.4590542 Z" id="Combined-Shape"></path>
                </g>
                <path d="M44.9265282,67 L44.9265282,67 L7.8343326,67 C2.65143673,67 -1.20344556,62.0872762 0.346455567,57.2362456 C3.44625782,47.5244433 10.7387413,40.5563631 22.1245535,37.033359 C16.517753,33.4291796 12.8085879,27.2273934 12.8085879,20.16515 C12.8085879,7.70313157 24.3368055,-2.115822 37.5043416,0.394115537 C45.6512578,1.94618558 52.1588555,8.46293155 53.609404,16.4733014 C55.1559933,25.0259217 51.1951349,32.815495 44.6312374,37.033359 C50.0024059,38.6953089 54.4619051,41.1239285 58,44.2455885" id="Combined-Shape" stroke="#19A7DD" stroke-linecap="round" stroke-linejoin="round"></path>
            </g>
        </g>
    </g>
</svg>