<?xml version="1.0" encoding="UTF-8" standalone="no"?>
<svg width="128px" height="25px" viewBox="0 0 128 25" version="1.1" xmlns="http://www.w3.org/2000/svg" xmlns:xlink="http://www.w3.org/1999/xlink">
    <!-- Generator: Sketch 3.8.3 (29802) - http://www.bohemiancoding.com/sketch -->
    <title>ico-deputy-white</title>
    <desc>Created with Sketch.</desc>
    <defs></defs>
    <g id="logos-white" stroke="none" stroke-width="1" fill="none" fill-rule="evenodd">
        <g id="ico-deputy-white" transform="translate(-46.000000, -27.000000)" fill="#FFFFFF">
            <g transform="translate(46.000000, 27.000000)">
                <path d="M23.2868524,8.98653846 C23.0307266,8.98653846 22.7791056,8.90769231 22.5693141,8.76410256 L17.4500163,12.7205128 L19.2802216,18.7634615 C19.6476784,18.7871795 19.9823151,18.9641026 20.2081949,19.2570513 C20.2262138,19.2807692 20.2397279,19.3070513 20.2564598,19.3333333 L25.714899,15.2698718 L23.6942082,8.91730769 C23.6800505,8.92179487 23.6678234,8.92884615 23.6530222,8.93333333 C23.529464,8.96923077 23.4078364,8.98653846 23.2868524,8.98653846" id="Fill-1"></path>
                <path d="M17.9242994,20.0346154 C17.9242994,19.925 17.9378136,19.8160256 17.9667726,19.7089744 L12.8854431,15.9730769 L7.74104757,19.7724359 C7.77000652,19.8782051 7.78480775,19.9871795 7.78480775,20.0942308 C7.78480775,20.3391026 7.71273216,20.5782051 7.57823395,20.7839744 C7.56085859,20.8096154 7.54155262,20.8333333 7.52289019,20.8576923 L12.8648501,24.8333333 L18.2235419,20.8455128 C18.2113148,20.8320513 18.1978006,20.8185897 18.1875041,20.8038462 C18.0143939,20.5801282 17.9236559,20.3141026 17.9242994,20.0346154" id="Fill-2"></path>
                <path d="M13.6608993,1.21346154 L15.669363,7.31025641 L22.0840909,7.31153846 C22.2127973,6.92628205 22.5191186,6.62179487 22.9161779,6.5025641 C22.9193956,6.50192308 22.9226132,6.50128205 22.9258309,6.50064103 L20.9218719,0.200641026 L14.1512708,0.200641026 L14.1512708,0.21474359 C14.1512708,0.613461538 13.9685077,0.976282051 13.6608993,1.21346154" id="Fill-3"></path>
                <path d="M6.46106224,18.824359 L8.32344412,12.7326923 L3.17518736,8.73525641 C2.96410883,8.87820513 2.71377485,8.95705128 2.4582926,8.95705128 C2.33409091,8.95705128 2.21375041,8.93910256 2.09340991,8.90384615 C2.0773216,8.89871795 2.06252036,8.89102564 2.04643206,8.88525641 L0.0154447703,15.2698718 L5.48482405,19.3403846 C5.71392147,19.0288462 6.07043825,18.8378205 6.46106224,18.824359" id="Fill-4"></path>
                <path d="M3.66491528,7.28333333 L10.1118198,7.28910256 L12.0900375,1.20833333 C11.7843597,0.970512821 11.6022401,0.608974359 11.6022401,0.21474359 C11.6022401,0.21025641 11.6035272,0.205128205 11.6035272,0.200641026 L4.80847181,0.200641026 L2.81480938,6.46987179 C2.81867058,6.47115385 2.82381883,6.47179487 2.82832356,6.47307692 C3.22795699,6.59294872 3.53556533,6.89807692 3.66491528,7.28333333" id="Fill-5"></path>
                <path d="M45.1772401,1.0775641 C44.7396383,0.532692308 44.0072988,0.257051282 43.0008146,0.257051282 L31.2981834,0.257051282 L27.9428071,15.2455128 L39.7812235,15.2455128 C41.7729554,15.2455128 43.1127892,14.1564103 43.5561828,12.1762821 L45.5073721,3.45961538 C45.7377566,2.43525641 45.625782,1.63397436 45.1772401,1.0775641 M40.7188498,3.10192308 L38.6666259,12.2666667 C38.5681655,12.7083333 38.36674,12.7916667 38.0295292,12.7916667 L33.3607038,12.7916667 L35.6137097,2.73205128 L40.4241121,2.71089744 C40.6583578,2.71089744 40.713058,2.76282051 40.7201369,2.77435897 C40.7465217,2.80641026 40.7613229,2.91153846 40.7188498,3.10192308" id="Fill-6"></path>
                <polyline id="Fill-7" points="52.0945666 6.45705128 52.9337325 2.71089744 60.6232975 2.71089744 61.1722304 0.257051282 48.613058 0.257051282 45.2576817 15.2455128 57.8162105 15.2455128 58.3651434 12.7916667 50.6755784 12.7916667 51.5449902 8.91025641 58.5356794 8.91025641 59.0846123 6.45705128 52.0945666 6.45705128"></polyline>
                <path d="M77.1105898,1.18589744 C76.6144265,0.569871795 75.7192734,0.257051282 74.4502281,0.257051282 L63.380189,0.257051282 L60.0235256,15.2455128 L64.8924894,15.2455128 L66.0296106,10.1685897 L72.3690453,10.1685897 C74.7127892,10.1685897 76.1916259,9.09935897 76.6446725,7.07628205 L77.4490877,3.48269231 C77.6666015,2.50897436 77.5526963,1.73653846 77.1105898,1.18589744 M72.7056126,3.52820513 L71.9809954,6.76346154 C71.7982323,7.57692308 71.5646302,7.71474359 70.9539182,7.71474359 L66.579187,7.71474359 L67.6995764,2.71089744 L72.2113799,2.71089744 C72.5621049,2.71089744 72.6837325,2.77115385 72.724275,2.82115385 C72.773827,2.88333333 72.8111518,3.05641026 72.7056126,3.52820513" id="Fill-8"></path>
                <path d="M90.9169273,0.257051282 L88.1922124,12.424359 C88.1420169,12.650641 88.0377647,12.7916667 87.6799609,12.7916667 L82.3238433,12.7916667 C82.2067204,12.7935897 82.1037553,12.7987179 82.078014,12.7429487 C82.0735093,12.7326923 82.0554904,12.6794872 82.0818752,12.5570513 L84.8368361,0.257051282 L79.9672287,0.257051282 L77.2438009,12.424359 C77.0809873,13.1474359 77.235435,13.8685897 77.6653144,14.4038462 C78.0958374,14.9384615 78.7715461,15.2455128 79.5206175,15.2455128 L88.4959596,15.2455128 C89.998607,15.2455128 91.5437276,14.0147436 91.8693548,12.5570513 L94.6243157,0.257051282 L90.9169273,0.257051282" id="Fill-9"></path>
                <polyline id="Fill-10" points="96.1636445 0.257051282 95.6147116 2.71089744 100.057014 2.71089744 97.2505702 15.2455128 102.119534 15.2455128 104.925978 2.71089744 109.367636 2.71089744 109.9185 0.257051282 96.1636445 0.257051282"></polyline>
                <polyline id="Fill-11" points="123.204863 0.257051282 118.880327 5.36217949 116.730287 0.257051282 111.121261 0.257051282 114.820283 8.79166667 113.374267 15.2455128 118.424707 15.2455128 119.823746 8.99423077 127.41485 0.257051282 123.204863 0.257051282"></polyline>
            </g>
        </g>
    </g>
</svg>