<?xml version="1.0" encoding="UTF-8" standalone="no"?>
<svg width="150px" height="41px" viewBox="0 0 150 41" version="1.1" xmlns="http://www.w3.org/2000/svg" xmlns:xlink="http://www.w3.org/1999/xlink">
    <!-- Generator: Sketch 3.8.3 (29802) - http://www.bohemiancoding.com/sketch -->
    <title>ico-hubdoc-white</title>
    <desc>Created with Sketch.</desc>
    <defs></defs>
    <g id="logos-white" stroke="none" stroke-width="1" fill="none" fill-rule="evenodd">
        <g id="ico-hubdoc-white" transform="translate(-35.000000, -20.000000)" fill="#FFFFFF">
            <g transform="translate(35.000000, 20.000000)">
                <g>
                    <path d="M69.9279904,26.7545455 C69.587799,27.6208134 69.1047847,28.3722488 68.4739234,29.0117225 C67.8466507,29.6519139 67.0873206,30.1543062 66.2002392,30.5110048 C65.3138756,30.873445 64.3320574,31.0543062 63.2626794,31.0543062 C62.1416268,31.0543062 61.1461722,30.8842105 60.2662679,30.5282297 C59.3899522,30.176555 58.6528708,29.6899522 58.0349282,29.0555024 C57.4313397,28.4318182 56.9677033,27.6789474 56.64689,26.8169856 C56.3267943,25.9507177 56.1681818,24.9868421 56.1681818,23.9361244 L56.1681818,14.738756 L60.2547847,14.738756 L60.2547847,24.0595694 C60.2547847,24.2849282 60.2870813,24.5677033 60.3488038,24.9100478 C60.4090909,25.2523923 60.5433014,25.5854067 60.7478469,25.9148325 C60.9545455,26.2442584 61.2617225,26.5248804 61.6507177,26.7545455 C62.0425837,26.980622 62.5758373,27.0983254 63.2626794,27.0983254 C64.1677033,27.0983254 64.911244,26.8105263 65.4897129,26.2442584 C66.0703349,25.676555 66.3523923,24.9452153 66.3523923,24.0595694 L66.3523923,14.738756 L70.4425837,14.738756 L70.4425837,23.9361244 C70.4425837,24.9452153 70.2696172,25.8854067 69.9279904,26.7545455" id="Fill-1"></path>
                    <path d="M84.9746411,20.934689 C84.7614833,20.3720096 84.462201,19.891866 84.0933014,19.4770335 C83.7172249,19.0636364 83.2808612,18.7485646 82.7784689,18.5174641 C82.2875598,18.292823 81.7578947,18.1787081 81.2016746,18.1787081 C80.6389952,18.1787081 80.1136364,18.3007177 79.6177033,18.5361244 C79.115311,18.7715311 78.6832536,19.0937799 78.3093301,19.507177 C77.9339713,19.9220096 77.6425837,20.4021531 77.4215311,20.9698565 C77.2069378,21.5217703 77.0978469,22.1217703 77.0978469,22.7598086 C77.0978469,23.3748804 77.2069378,23.9598086 77.4215311,24.5074163 C77.6425837,25.057177 77.9339713,25.5322967 78.3093301,25.9313397 C78.6832536,26.3325359 79.115311,26.6511962 79.6177033,26.8901914 C80.1136364,27.1334928 80.6389952,27.24689 81.2016746,27.24689 C81.7578947,27.24689 82.2875598,27.1334928 82.7784689,26.9117225 C83.2808612,26.6856459 83.7172249,26.3648325 84.0933014,25.9586124 C84.462201,25.5617225 84.7614833,25.0830144 84.9746411,24.5361244 C85.1935407,23.9913876 85.2990431,23.3978469 85.2990431,22.7598086 C85.2990431,22.0995215 85.1935407,21.488756 84.9746411,20.934689 M88.7856459,25.9665072 C88.3851675,26.9834928 87.8188995,27.8720096 87.0933014,28.6220096 C86.3770335,29.3791866 85.5136364,29.9705742 84.5124402,30.4047847 C83.5126794,30.8382775 82.4124402,31.0543062 81.215311,31.0543062 C79.9973684,31.0543062 78.8921053,30.8382775 77.8837321,30.4047847 C76.8854067,29.973445 76.0270335,29.380622 75.3014354,28.6277512 C74.5794258,27.8741627 74.0203349,26.9892344 73.6133971,25.9758373 C73.2129187,24.9688995 73.0098086,23.8830144 73.0098086,22.7282297 L73.0098086,7.65143541 L77.0978469,7.65143541 L77.0978469,16.2236842 C77.6956938,15.5892344 78.3925837,15.1184211 79.1755981,14.8184211 C79.9665072,14.5198565 80.8248804,14.3705742 81.7528708,14.3705742 C82.8078947,14.3705742 83.8004785,14.5851675 84.7299043,15.0215311 C85.6657895,15.4578947 86.4717703,16.0521531 87.15,16.8186603 C87.8404306,17.5844498 88.3794258,18.476555 88.7856459,19.4827751 C89.1875598,20.4976077 89.3820574,21.573445 89.3820574,22.7110048 C89.3820574,23.8708134 89.1875598,24.9574163 88.7856459,25.9665072" id="Fill-2"></path>
                    <path d="M102.592823,20.9698565 C102.375359,20.4021531 102.077512,19.9220096 101.705742,19.507177 C101.333254,19.0937799 100.903349,18.7715311 100.400239,18.5361244 C99.9064593,18.3007177 99.3739234,18.1787081 98.8191388,18.1787081 C98.2607656,18.1787081 97.7282297,18.292823 97.2301435,18.5174641 C96.7363636,18.7485646 96.3014354,19.0636364 95.9303828,19.4770335 C95.5514354,19.891866 95.2578947,20.3720096 95.0425837,20.934689 C94.8215311,21.488756 94.7131579,22.0995215 94.7131579,22.7598086 C94.7131579,23.3978469 94.8215311,23.9913876 95.0425837,24.5361244 C95.2578947,25.0830144 95.5514354,25.5617225 95.9303828,25.9586124 C96.3014354,26.3648325 96.7363636,26.6856459 97.2301435,26.9117225 C97.7282297,27.1334928 98.2607656,27.24689 98.8191388,27.24689 C99.3739234,27.24689 99.9064593,27.1334928 100.400239,26.8901914 C100.903349,26.6511962 101.333254,26.3325359 101.705742,25.9313397 C102.077512,25.5322967 102.375359,25.057177 102.592823,24.5074163 C102.810287,23.9598086 102.917943,23.3748804 102.917943,22.7598086 C102.917943,22.1217703 102.810287,21.5217703 102.592823,20.9698565 M107.003828,22.7282297 C107.003828,23.8830144 106.800718,24.9688995 106.398086,25.9758373 C105.998325,26.9892344 105.437799,27.8741627 104.715789,28.6277512 C103.988038,29.380622 103.131818,29.973445 102.128469,30.4047847 C101.133014,30.8382775 100.029904,31.0543062 98.8327751,31.0543062 C97.6141148,31.0543062 96.5088517,30.8382775 95.5019139,30.4047847 C94.5028708,29.9705742 93.6394737,29.3791866 92.915311,28.6220096 C92.1940191,27.8720096 91.6349282,26.9834928 91.2301435,25.9665072 C90.8260766,24.9574163 90.6308612,23.8708134 90.6308612,22.7110048 C90.6308612,21.573445 90.8260766,20.4976077 91.2301435,19.4827751 C91.6349282,18.4708134 92.1811005,17.5844498 92.8679426,16.8186603 C93.5662679,16.0521531 94.3679426,15.4578947 95.2880383,15.0215311 C96.2059809,14.5851675 97.192823,14.3705742 98.2406699,14.3705742 C100.144737,14.3705742 101.704306,14.9913876 102.917943,16.2236842 L102.917943,7.65143541 L107.003828,7.65143541 L107.003828,22.7282297" id="Fill-3"></path>
                    <path d="M118.123923,26.927512 C118.596172,26.7114833 119.015311,26.4028708 119.374163,26.00311 C119.738756,25.6033493 120.015072,25.1253589 120.22823,24.573445 C120.434211,24.0215311 120.538278,23.4035885 120.538278,22.7282297 C120.538278,22.0492823 120.434211,21.4255981 120.22823,20.8564593 C120.015072,20.2736842 119.738756,19.7842105 119.374163,19.3736842 C119.015311,18.9667464 118.596172,18.6480861 118.123923,18.4220096 C117.648804,18.1966507 117.141388,18.084689 116.605263,18.084689 C116.06555,18.084689 115.558134,18.1966507 115.066507,18.4220096 C114.584928,18.6480861 114.169378,18.9667464 113.81555,19.3736842 C113.466746,19.7842105 113.191148,20.2736842 112.979426,20.8564593 C112.776316,21.4255981 112.671531,22.0492823 112.671531,22.7282297 C112.671531,23.4035885 112.776316,24.0215311 112.979426,24.573445 C113.191148,25.1253589 113.466746,25.6033493 113.81555,26.00311 C114.169378,26.4028708 114.584928,26.7114833 115.066507,26.927512 C115.558134,27.1406699 116.06555,27.24689 116.605263,27.24689 C117.141388,27.24689 117.648804,27.1406699 118.123923,26.927512 M119.712201,14.9110048 C120.676794,15.3380383 121.527273,15.9279904 122.260766,16.6858852 C122.989234,17.4437799 123.56555,18.3229665 123.991866,19.3550239 C124.411722,20.3791866 124.626316,21.5023923 124.626316,22.6944976 C124.626316,23.8980861 124.411722,25.0069378 123.991866,26.0260766 C123.56555,27.0330144 122.989234,27.9200957 122.260766,28.6607656 C121.527273,29.4050239 120.676794,29.9949761 119.712201,30.4177033 C118.738995,30.8425837 117.703349,31.0543062 116.587321,31.0543062 C115.477033,31.0543062 114.439234,30.8425837 113.4689,30.4177033 C112.495694,29.9949761 111.654545,29.4050239 110.932536,28.6607656 C110.211244,27.9200957 109.644258,27.0330144 109.215789,26.0260766 C108.792344,25.0069378 108.586364,23.8980861 108.586364,22.6944976 C108.586364,21.5023923 108.792344,20.3791866 109.215789,19.3550239 C109.644258,18.3229665 110.211244,17.4437799 110.932536,16.6858852 C111.654545,15.9279904 112.495694,15.3380383 113.4689,14.9110048 C114.439234,14.4889952 115.477033,14.276555 116.587321,14.276555 C117.703349,14.276555 118.738995,14.4889952 119.712201,14.9110048" id="Fill-4"></path>
                    <path d="M137.953349,24.573445 C137.743062,25.1253589 137.456699,25.6033493 137.096411,26.00311 C136.738995,26.4028708 136.321292,26.7114833 135.846172,26.927512 C135.366029,27.1406699 134.865072,27.24689 134.32823,27.24689 C133.788517,27.24689 133.27823,27.1406699 132.797368,26.927512 C132.312201,26.7114833 131.894498,26.4028708 131.533493,26.00311 C131.192584,25.6033493 130.90622,25.1253589 130.705981,24.573445 C130.497129,24.0215311 130.390909,23.4035885 130.390909,22.7282297 C130.390909,22.0492823 130.497129,21.4255981 130.705981,20.8528708 C130.90622,20.2736842 131.192584,19.7842105 131.533493,19.3736842 C131.894498,18.9631579 132.312201,18.6480861 132.797368,18.4220096 C133.27823,18.1966507 133.788517,18.084689 134.32823,18.084689 C134.865072,18.084689 135.366029,18.1966507 135.846172,18.4220096 C136.321292,18.6480861 136.738995,18.9631579 137.096411,19.3736842 C137.456699,19.7842105 137.743062,20.2736842 137.953349,20.8528708 C137.982775,20.941866 138.000718,21.0351675 138.03445,21.1284689 L142.212919,21.1284689 C142.108134,20.5162679 141.942344,19.9220096 141.708373,19.3550239 C141.287799,18.3229665 140.717943,17.4437799 139.983014,16.6858852 C139.255263,15.9279904 138.403349,15.3380383 137.435167,14.9110048 C136.464833,14.4889952 135.428469,14.276555 134.315311,14.276555 C133.194258,14.276555 132.157177,14.4889952 131.192584,14.9110048 C130.21866,15.3380383 129.374641,15.9279904 128.661244,16.6858852 C127.935646,17.4437799 127.365789,18.3229665 126.939474,19.3550239 C126.517464,20.3791866 126.310766,21.5023923 126.310766,22.6944976 C126.310766,23.8980861 126.517464,25.0069378 126.939474,26.0260766 C127.365789,27.0330144 127.935646,27.9200957 128.661244,28.6607656 C129.374641,29.4050239 130.21866,29.9949761 131.192584,30.4177033 C132.157177,30.8425837 133.194258,31.0543062 134.315311,31.0543062 C135.428469,31.0543062 136.464833,30.8425837 137.435167,30.4177033 C138.403349,29.9949761 139.255263,29.4050239 139.983014,28.6607656 C140.717943,27.9200957 141.287799,27.0330144 141.708373,26.0260766 C141.911483,25.5430622 142.060766,25.0449761 142.168421,24.527512 L137.964833,24.527512 C137.962679,24.5447368 137.954785,24.5583732 137.953349,24.573445" id="Fill-5"></path>
                    <polyline id="Fill-6" points="53.3791866 30.6854067 49.0033493 30.6854067 49.0033493 20.9598086 40.773445 20.9598086 40.773445 30.6854067 36.3839713 30.6854067 36.3839713 7.65143541 40.773445 7.65143541 40.773445 16.8746411 49.0033493 16.8746411 49.0033493 7.65143541 53.3791866 7.65143541 53.3791866 30.6854067"></polyline>
                    <polyline id="Fill-7" points="144.51244 16.630622 146.492584 16.630622 146.492584 17.0074163 145.710287 17.0074163 145.710287 19.0851675 145.286124 19.0851675 145.286124 17.0074163 144.51244 17.0074163 144.51244 16.630622"></polyline>
                    <polyline id="Fill-8" points="146.769617 16.630622 147.371053 16.630622 148.044258 18.5490431 148.053589 18.5490431 148.713158 16.630622 149.305981 16.630622 149.305981 19.0851675 148.901196 19.0851675 148.901196 17.1933014 148.891148 17.1933014 148.217225 19.0851675 147.861962 19.0851675 147.180861 17.1933014 147.174402 17.1933014 147.174402 19.0851675 146.769617 19.0851675 146.769617 16.630622"></polyline>
                    <path d="M14.0303828,39.7787081 C12.5555024,39.0610048 5.94043062,35.4638756 2.90023923,27.8741627 L21.1327751,33.3602871 C21.1327751,33.3602871 18.8440191,27.7988038 19.937799,20.9504785 C22.8437799,27.0710526 27.7564593,30.3681818 30.1155502,31.6636364 L14.0303828,39.7787081 L14.0303828,39.7787081 Z M10.8308612,0.787320574 L28.0952153,6.06746411 C23.8162679,9.49665072 21.0007177,13.6808612 19.7145933,18.5296651 C18.5052632,15.1055024 17.9777512,10.9184211 18.8002392,5.86004785 L1.87607656,14.3885167 C3.68110048,6.15287081 9.52177033,1.6930622 10.8308612,0.787320574 L10.8308612,0.787320574 Z M20.1660287,19.7188995 C21.1629187,15.1141148 23.7803828,10.062201 29.6433014,5.78827751 L10.7167464,0.0014354067 C10.7167464,0.0014354067 2.98133971,4.72894737 1.04210526,14.8076555 C0.76076555,16.25311 0.605023923,17.8076555 0.605023923,19.4705742 C0.605023923,22.5638756 1.14760766,25.2631579 2.0138756,27.607177 C5.45885167,36.9337321 14.0433014,40.5782297 14.0433014,40.5782297 L31.7174641,31.6593301 C31.7174641,31.6593301 23.7832536,28.3442584 20.1660287,19.7188995 L20.1660287,19.7188995 Z" id="Fill-9"></path>
                </g>
            </g>
        </g>
    </g>
</svg>