<svg xmlns="http://www.w3.org/2000/svg" width="172" height="104" xmlns:xlink="http://www.w3.org/1999/xlink"><defs><rect id="a" width="152" height="104" rx="3"/></defs><g fill="none" fill-rule="evenodd"><rect width="152" height="104" fill="#000" rx="3" transform="translate(10)"/><g transform="translate(10)"><mask id="b" fill="#fff"><use xlink:href="#a"/></mask><rect width="152" height="104" fill="#FFF" stroke="#BFC8D1" stroke-width="2" rx="3" mask="url(#b)"/></g><path fill="#BFC8D1" d="M0 103h172v1H0zm10-24h152v1H10z"/><rect width="150" height="30" x="11" y="1" fill="#F0F2F5" rx="3"/><path fill="#DD5502" d="M136.258 49.743l5.273 3.596 4.546-3.742v-7.879l-4.448 2.747-.088-3.293-4.884-3.445"/><path stroke="#231F1F" stroke-width="1.178" d="M138.959 51.042l2.555 1.703 4.634-3.032V37.887s-2.497 1.44-3.134 1.864c-.818.545-1.057 1.227-1.057 2.521v2.255l4.117-2.681m-5.514-1.277l-3.952-2.725v11.664m.136-7.474l2.624 1.738"/><path fill="#231F1F" d="M139.045 47.924a.664.664 0 1 1-1.329 0 .664.664 0 0 1 1.329 0m5.705 0a.664.664 0 1 1-1.328 0 .664.664 0 0 1 1.328 0m-3.348 3.11l-1.205-.835a.118.118 0 0 1 .084-.201h2.41c.105 0 .157.127.083.201l-1.205.834a.117.117 0 0 1-.167 0"/><path fill="#284664" d="M22.396 40.283h-1.352v7.982h1.352v-7.982zm1.806 7.982h1.3v-3.796c.143-.572.65-.923 1.21-.923.74 0 1.091.468 1.091 1.183v3.536h1.3v-3.757c0-1.274-.728-2.145-2.04-2.145-.677 0-1.249.312-1.56.676v-.546h-1.3v5.772zm9.437 0l2.197-5.772h-1.352l-1.482 4.225-1.495-4.225h-1.39l2.183 5.772h1.34zm8.307-2.886c0-1.768-1.118-3.016-2.743-3.016-1.625 0-2.743 1.248-2.743 3.016s1.118 3.016 2.743 3.016c1.625 0 2.743-1.248 2.743-3.016zm-1.3 0c0 1.092-.507 1.898-1.443 1.898s-1.443-.806-1.443-1.898c0-1.092.507-1.898 1.443-1.898s1.443.806 1.443 1.898zm3.925-2.886h-1.3v5.772h1.3v-5.772zm.156-1.742a.807.807 0 0 0-1.612 0 .807.807 0 0 0 1.612 0zm1.17 4.628c0 1.794 1.13 3.016 2.69 3.016 1.378 0 2.25-.78 2.418-1.937h-1.3c-.104.52-.533.806-1.105.806-.87 0-1.404-.793-1.404-1.885s.533-1.885 1.404-1.885c.572 0 1.001.286 1.105.806h1.3c-.169-1.157-1.04-1.937-2.418-1.937-1.56 0-2.69 1.222-2.69 3.016zm9.944 1.092c-.143.559-.611.832-1.235.832-.832 0-1.417-.611-1.456-1.625h3.939v-.468c0-1.69-.884-2.847-2.51-2.847-1.572 0-2.703 1.3-2.703 3.029 0 1.78 1.118 3.003 2.73 3.003 1.39 0 2.236-.78 2.43-1.924h-1.195zm-1.248-3.016c.793 0 1.196.572 1.209 1.274h-2.613c.156-.832.689-1.274 1.404-1.274z"/><path fill="#7E90A2" d="M21.836 92.492v-2.574h.594c.774 0 1.188.498 1.188 1.29 0 .786-.414 1.284-1.188 1.284h-.594zm-.624.558h1.242c1.086 0 1.788-.72 1.788-1.842s-.702-1.842-1.788-1.842h-1.242v3.684zm5.34-.828c-.066.258-.282.384-.57.384-.384 0-.654-.282-.672-.75h1.818v-.216c0-.78-.408-1.314-1.158-1.314-.726 0-1.248.6-1.248 1.398 0 .822.516 1.386 1.26 1.386.642 0 1.032-.36 1.122-.888h-.552zm-.576-1.392c.366 0 .552.264.558.588h-1.206c.072-.384.318-.588.648-.588zm1.571 1.452c.078.516.51.828 1.134.828.6 0 1.038-.324 1.038-.852 0-.39-.228-.648-.684-.756l-.564-.132c-.192-.048-.276-.126-.276-.246 0-.21.216-.306.426-.306.276 0 .432.12.486.294h.588c-.09-.486-.444-.786-1.068-.786-.582 0-1.008.354-1.008.834 0 .438.282.642.66.732l.552.132c.222.054.312.132.312.276 0 .21-.18.318-.456.318-.264 0-.462-.114-.528-.336h-.612zm2.628-.564c0 .828.522 1.392 1.242 1.392.636 0 1.038-.36 1.116-.894h-.6c-.048.24-.246.372-.51.372-.402 0-.648-.366-.648-.87s.246-.87.648-.87c.264 0 .462.132.51.372h.6c-.078-.534-.48-.894-1.116-.894-.72 0-1.242.564-1.242 1.392zm4.434-1.344a.747.747 0 0 0-.294-.048c-.258 0-.492.138-.594.336v-.276h-.6v2.664h.6v-1.722c.06-.288.288-.426.534-.426.126 0 .27.03.354.09v-.618zm1.205.012h-.6v2.664h.6v-2.664zm.072-.804a.373.373 0 0 0-.744 0 .373.373 0 0 0 .744 0zm1.326 3.24c.12.15.384.288.678.288.78 0 1.236-.648 1.236-1.392 0-.744-.456-1.392-1.236-1.392-.294 0-.558.138-.678.288v-.228h-.6v3.684h.6v-1.248zm0-1.608a.647.647 0 0 1 .576-.354c.462 0 .738.366.738.858s-.276.858-.738.858a.647.647 0 0 1-.576-.354v-1.008zm2.664 1.116c0 .528.336.78.81.78a.929.929 0 0 0 .45-.096v-.546a.642.642 0 0 1-.342.108c-.198 0-.318-.096-.318-.312v-1.38h.6v-.498h-.6v-.714h-.6v.714h-.42v.498h.42v1.446zm2.526-1.944h-.6v2.664h.6v-2.664zm.072-.804a.373.373 0 0 0-.744 0 .373.373 0 0 0 .744 0zm3.071 2.136c0-.816-.516-1.392-1.266-1.392s-1.266.576-1.266 1.392.516 1.392 1.266 1.392 1.266-.576 1.266-1.392zm-.6 0c0 .504-.234.876-.666.876-.432 0-.666-.372-.666-.876s.234-.876.666-.876c.432 0 .666.372.666.876zm1.212 1.332h.6v-1.752a.565.565 0 0 1 .558-.426c.342 0 .504.216.504.546v1.632h.6v-1.734c0-.588-.336-.99-.942-.99a.964.964 0 0 0-.72.312v-.252h-.6v2.664zm83.526-3.684l-1.416 3.684h.63l.378-1.02h1.41l.378 1.02h.636l-1.416-3.684h-.6zm.294.762l.504 1.362h-1.008l.504-1.362zm4.236.552a.854.854 0 0 0-.702-.354c-.3 0-.54.114-.666.282v-.222h-.6v2.664h.6v-1.788a.471.471 0 0 1 .474-.396c.294 0 .438.216.438.546v1.638h.6v-1.788a.471.471 0 0 1 .474-.396c.294 0 .438.216.438.546v1.638h.6v-1.734c0-.606-.318-.99-.864-.99a.982.982 0 0 0-.792.354zm4.763 1.038c0-.816-.516-1.392-1.266-1.392s-1.266.576-1.266 1.392.516 1.392 1.266 1.392 1.266-.576 1.266-1.392zm-.6 0c0 .504-.234.876-.666.876-.432 0-.666-.372-.666-.876s.234-.876.666-.876c.432 0 .666.372.666.876zm3.426-1.332h-.6v1.752a.558.558 0 0 1-.552.426c-.342 0-.498-.216-.498-.546v-1.632h-.6v1.734c0 .588.33.99.936.99a.95.95 0 0 0 .714-.312v.252h.6v-2.664zm.798 2.664h.6v-1.752a.565.565 0 0 1 .558-.426c.342 0 .504.216.504.546v1.632h.6v-1.734c0-.588-.336-.99-.942-.99a.964.964 0 0 0-.72.312v-.252h-.6v2.664zm3.162-.72c0 .528.336.78.81.78a.929.929 0 0 0 .45-.096v-.546a.642.642 0 0 1-.342.108c-.198 0-.318-.096-.318-.312v-1.38h.6v-.498h-.6v-.714h-.6v.714h-.42v.498h.42v1.446zM20.16 58.04h1.664v4.256h.848V58.04h1.664v-.75H20.16v.75zm7.743 2.446c0-1.109-.702-1.891-1.721-1.891-1.02 0-1.721.782-1.721 1.891s.701 1.891 1.72 1.891c1.02 0 1.722-.782 1.722-1.891zm-.816 0c0 .685-.318 1.19-.905 1.19s-.905-.505-.905-1.19c0-.685.318-1.19.905-1.19s.905.505.905 1.19zm5.193-.22l1.395 2.03h.962l-1.452-2.063c.792-.122 1.28-.603 1.28-1.443 0-.978-.668-1.5-1.704-1.5h-1.933v5.006h.849v-2.03h.603zm-.603-2.242h1.068c.563 0 .88.302.88.766 0 .465-.317.767-.88.767h-1.068v-1.533zm4.602.652h-.815v3.62h.815v-3.62zm.098-1.092a.506.506 0 0 0-1.011 0 .506.506 0 0 0 1.011 0zm3.42 4.712h.816v-5.3h-.815v1.99c-.164-.204-.522-.391-.922-.391-1.06 0-1.68.856-1.68 1.891 0 1.043.62 1.891 1.68 1.891.4 0 .758-.187.922-.391v.31zm0-1.125a.88.88 0 0 1-.782.48c-.628 0-1.004-.497-1.004-1.165s.376-1.166 1.004-1.166a.88.88 0 0 1 .783.481v1.37zm4.334.88c0 .677-.285 1.044-.889 1.044-.448 0-.734-.204-.815-.604h-.791c.09.791.685 1.272 1.606 1.272.963 0 1.705-.546 1.705-1.769v-3.318h-.816v.294c-.163-.196-.514-.375-.921-.375-1.069 0-1.68.88-1.68 1.834 0 .954.611 1.834 1.68 1.834.407 0 .758-.18.921-.375v.163zm0-.937a.91.91 0 0 1-.783.432c-.628 0-.987-.473-.987-1.117s.36-1.117.987-1.117a.91.91 0 0 1 .783.432v1.37zm4.22.057c-.09.35-.384.522-.775.522-.522 0-.889-.384-.913-1.02h2.47v-.293c0-1.06-.554-1.785-1.573-1.785-.987 0-1.697.815-1.697 1.9 0 1.116.702 1.882 1.713 1.882.873 0 1.403-.489 1.525-1.206h-.75zm-.783-1.892c.497 0 .75.36.758.8h-1.639c.098-.522.432-.8.88-.8zm5.01-.603h-.742l-.636 2.568-.701-2.568h-.816l1.052 3.62h.816l.644-2.52.644 2.52h.816l1.052-3.62h-.791l-.701 2.568-.637-2.568zm5.688 3.62v-2.373c0-.823-.538-1.328-1.452-1.328-.742 0-1.313.464-1.419 1.084h.783c.09-.253.294-.391.62-.391.465 0 .693.285.693.652v.293c-.147-.106-.514-.22-.84-.22-.8 0-1.41.481-1.41 1.166 0 .742.61 1.182 1.353 1.182.408 0 .775-.147.897-.269v.204h.775zm-.775-.962c-.09.228-.416.367-.742.367-.367 0-.75-.155-.75-.522 0-.359.383-.514.75-.514.326 0 .653.139.742.367v.302zm3.135 2.348l1.909-5.006h-.84l-.93 2.666-.946-2.666h-.873l1.403 3.718-.514 1.288h.791zm4.337-2.772c.18.93.938 1.467 1.998 1.467 1.036 0 1.786-.578 1.786-1.516 0-.75-.514-1.207-1.297-1.386l-.872-.204c-.45-.106-.661-.318-.661-.652 0-.416.367-.693.905-.693.596 0 .914.294 1.044.669h.848c-.18-.832-.815-1.386-1.9-1.386-1.011 0-1.705.636-1.705 1.483 0 .808.555 1.183 1.248 1.346l.849.203c.522.123.725.327.725.677 0 .465-.383.742-.97.742-.547 0-.97-.237-1.134-.75h-.864zm4.52-.424c0 1.125.71 1.891 1.69 1.891.864 0 1.41-.489 1.516-1.214h-.815c-.066.326-.335.505-.694.505-.546 0-.88-.497-.88-1.182 0-.685.334-1.182.88-1.182.36 0 .628.18.694.505h.815c-.106-.725-.652-1.214-1.517-1.214-.979 0-1.688.766-1.688 1.891zm4.09 1.81h.816v-2.38a.767.767 0 0 1 .758-.58c.465 0 .685.294.685.742v2.218h.816V59.94c0-.8-.457-1.345-1.28-1.345a1.31 1.31 0 0 0-.98.424v-2.022h-.815v5.299zm7.384-1.81c0-1.109-.701-1.891-1.72-1.891s-1.722.782-1.722 1.891.702 1.891 1.721 1.891c1.02 0 1.721-.782 1.721-1.891zm-.816 0c0 .685-.318 1.19-.905 1.19s-.905-.505-.905-1.19c0-.685.318-1.19.905-1.19s.905.505.905 1.19zm4.946 0c0-1.109-.702-1.891-1.721-1.891-1.02 0-1.721.782-1.721 1.891s.701 1.891 1.72 1.891c1.02 0 1.722-.782 1.722-1.891zm-.816 0c0 .685-.318 1.19-.905 1.19s-.905-.505-.905-1.19c0-.685.318-1.19.905-1.19s.905.505.905 1.19zm2.548-3.49h-.816v5.3h.816v-5.3zM67.647 13.112h2.89v.812h-2.212l-.287 1.417.016.016c.122-.138.278-.243.467-.315a1.58 1.58 0 0 1 .563-.107c.277 0 .524.046.742.14.219.092.402.222.551.39.15.166.262.364.34.592a2.36 2.36 0 0 1 .008 1.429 1.834 1.834 0 0 1-.946 1.122 1.915 1.915 0 0 1-.879.187c-.271 0-.523-.035-.754-.107a1.794 1.794 0 0 1-.611-.322 1.577 1.577 0 0 1-.42-.53 1.797 1.797 0 0 1-.171-.736h.91c.027.303.13.535.312.697.18.161.42.242.718.242.192 0 .354-.032.487-.095a.852.852 0 0 0 .324-.263c.082-.111.14-.241.175-.39.035-.149.052-.308.052-.478 0-.153-.021-.3-.064-.441a1.088 1.088 0 0 0-.191-.37.915.915 0 0 0-.332-.255 1.108 1.108 0 0 0-.475-.096c-.191 0-.371.036-.539.108a.668.668 0 0 0-.363.402h-.91l.599-3.049zm4.593 0h2.89v.812h-2.21l-.288 1.417.016.016c.122-.138.278-.243.467-.315s.376-.107.563-.107c.276 0 .524.046.742.14.218.092.402.222.551.39.15.166.262.364.34.592a2.36 2.36 0 0 1 .008 1.429 1.834 1.834 0 0 1-.946 1.122 1.915 1.915 0 0 1-.879.187c-.271 0-.523-.035-.754-.107a1.794 1.794 0 0 1-.611-.322 1.577 1.577 0 0 1-.42-.53 1.797 1.797 0 0 1-.171-.736h.91c.027.303.13.535.311.697.181.161.421.242.72.242.19 0 .353-.032.486-.095a.852.852 0 0 0 .323-.263c.083-.111.142-.241.176-.39.035-.149.052-.308.052-.478 0-.153-.021-.3-.064-.441a1.088 1.088 0 0 0-.191-.37.915.915 0 0 0-.332-.255 1.108 1.108 0 0 0-.475-.096c-.192 0-.371.036-.539.108a.668.668 0 0 0-.363.402h-.91l.598-3.049zm5.832-.111c.4 0 .725.091.978.274.253.183.45.417.59.7.142.285.238.596.288.936.05.34.076.669.076.987 0 .318-.025.647-.076.987a3.12 3.12 0 0 1-.287.935 1.889 1.889 0 0 1-.591.7c-.253.184-.579.275-.978.275-.4 0-.725-.091-.978-.274a1.889 1.889 0 0 1-.591-.7 3.12 3.12 0 0 1-.287-.936 6.701 6.701 0 0 1-.076-.987c0-.318.025-.647.076-.987.05-.34.146-.651.287-.935.141-.284.338-.518.59-.7.254-.184.58-.275.979-.275zm0 5.038a.734.734 0 0 0 .495-.17 1.16 1.16 0 0 0 .315-.463c.077-.193.132-.42.164-.68.032-.26.048-.536.048-.828s-.016-.566-.048-.824a2.807 2.807 0 0 0-.164-.68 1.156 1.156 0 0 0-.315-.466.734.734 0 0 0-.495-.171.73.73 0 0 0-.5.171 1.18 1.18 0 0 0-.31.466 2.807 2.807 0 0 0-.164.68c-.032.258-.048.532-.048.824s.016.568.048.828.086.487.163.68c.078.194.181.348.312.462a.73.73 0 0 0 .499.171zm2.925-.43h1.11v1.075h-1.11v-1.075zm4.043-4.608c.4 0 .725.091.978.274.253.183.45.417.59.7.142.285.238.596.288.936.05.34.076.669.076.987 0 .318-.025.647-.076.987a3.12 3.12 0 0 1-.287.935 1.889 1.889 0 0 1-.591.7c-.253.184-.579.275-.978.275-.4 0-.725-.091-.978-.274a1.889 1.889 0 0 1-.591-.7 3.12 3.12 0 0 1-.287-.936 6.701 6.701 0 0 1-.076-.987c0-.318.025-.647.076-.987.05-.34.146-.651.287-.935.141-.284.338-.518.59-.7.254-.184.58-.275.979-.275zm0 5.038a.734.734 0 0 0 .495-.17 1.16 1.16 0 0 0 .315-.463c.077-.193.132-.42.164-.68.032-.26.048-.536.048-.828s-.016-.566-.048-.824a2.807 2.807 0 0 0-.164-.68 1.156 1.156 0 0 0-.315-.466.734.734 0 0 0-.495-.171.73.73 0 0 0-.5.171 1.18 1.18 0 0 0-.31.466 2.807 2.807 0 0 0-.164.68c-.032.258-.048.532-.048.824s.016.568.048.828.086.487.163.68c.078.194.181.348.312.462a.73.73 0 0 0 .499.171zm4.594-5.038c.399 0 .725.091.978.274.253.183.45.417.59.7.142.285.238.596.288.936.05.34.076.669.076.987 0 .318-.025.647-.076.987a3.12 3.12 0 0 1-.287.935 1.889 1.889 0 0 1-.591.7c-.253.184-.58.275-.978.275-.4 0-.726-.091-.978-.274a1.889 1.889 0 0 1-.591-.7 3.12 3.12 0 0 1-.288-.936 6.701 6.701 0 0 1-.075-.987c0-.318.025-.647.075-.987.05-.34.147-.651.288-.935.14-.284.338-.518.59-.7.253-.184.58-.275.979-.275zm0 5.038a.734.734 0 0 0 .495-.17 1.16 1.16 0 0 0 .315-.463c.077-.193.132-.42.164-.68.032-.26.048-.536.048-.828s-.016-.566-.048-.824a2.807 2.807 0 0 0-.164-.68 1.156 1.156 0 0 0-.315-.466.734.734 0 0 0-.495-.171.73.73 0 0 0-.5.171 1.17 1.17 0 0 0-.31.466 2.807 2.807 0 0 0-.164.68c-.032.258-.048.532-.048.824s.016.568.048.828.086.487.163.68c.077.194.181.348.312.462a.73.73 0 0 0 .499.171z"/><g transform="translate(18 7)"><rect width="44" height="17" fill="#5CC400" rx="1"/><path fill="#FFF" d="M9.123 8.336v-1.49h.852c.126 0 .247.009.364.027a.847.847 0 0 1 .307.108.59.59 0 0 1 .213.227c.054.097.08.225.08.383a.794.794 0 0 1-.08.383.589.589 0 0 1-.213.226.847.847 0 0 1-.307.108 2.304 2.304 0 0 1-.364.028h-.852zm-1.097-2.34v4.973h1.097V9.186h1.153c.312 0 .577-.046.796-.136a1.38 1.38 0 0 0 .835-.871 1.886 1.886 0 0 0 0-1.18 1.377 1.377 0 0 0-.3-.509 1.49 1.49 0 0 0-.535-.358 2.083 2.083 0 0 0-.796-.136h-2.25zm4.513 2.48c.014-.233.073-.426.175-.579a1.2 1.2 0 0 1 .391-.369c.159-.093.337-.16.535-.199.198-.039.397-.059.597-.059.182 0 .366.013.552.039.186.025.356.075.51.15.154.074.28.177.377.31.098.132.147.307.147.525v1.874c0 .162.01.318.028.466.019.149.051.26.098.335h-1.006a1.416 1.416 0 0 1-.07-.349 1.293 1.293 0 0 1-.56.342 2.25 2.25 0 0 1-.656.097 1.78 1.78 0 0 1-.482-.063 1.105 1.105 0 0 1-.391-.195.908.908 0 0 1-.262-.334 1.127 1.127 0 0 1-.094-.48c0-.205.036-.373.108-.505a.903.903 0 0 1 .28-.317c.113-.08.244-.138.39-.178.147-.04.295-.07.444-.094.15-.023.296-.042.44-.056.145-.014.273-.034.385-.062a.67.67 0 0 0 .265-.122c.065-.054.096-.131.09-.234a.523.523 0 0 0-.051-.254.385.385 0 0 0-.14-.146.55.55 0 0 0-.203-.07 1.663 1.663 0 0 0-.248-.017c-.195 0-.35.042-.46.125-.113.084-.178.223-.197.418h-.992zm2.292.73a.445.445 0 0 1-.157.088 1.61 1.61 0 0 1-.203.052 3.114 3.114 0 0 1-.227.035c-.08.009-.158.02-.237.034a1.796 1.796 0 0 0-.22.056.651.651 0 0 0-.19.094.447.447 0 0 0-.128.15.48.48 0 0 0-.05.23c0 .088.017.162.05.223.032.06.076.108.132.142a.56.56 0 0 0 .196.074c.074.013.151.02.23.02.196 0 .347-.032.455-.097a.653.653 0 0 0 .237-.233.745.745 0 0 0 .094-.275c.012-.093.018-.168.018-.223v-.37zm3.542 2.208l1.509-4.046h-1.027l-.79 2.465h-.013l-.818-2.465H16.18l1.265 3.378c.028.07.042.144.042.223a.493.493 0 0 1-.095.292.386.386 0 0 1-.29.153 2.065 2.065 0 0 1-.293-.007l-.286-.027v.814c.102.01.203.018.303.025.1.007.202.01.304.01.34 0 .606-.062.797-.188.19-.125.34-.334.447-.627zm3.787-4.046v3.6h.992V9.082c0-.367.06-.63.181-.79.121-.16.317-.24.587-.24.238 0 .403.072.496.219.093.146.14.368.14.665v2.034h.992V8.754c0-.223-.02-.426-.06-.61a1.157 1.157 0 0 0-.206-.466.968.968 0 0 0-.401-.3 1.69 1.69 0 0 0-.654-.108c-.21 0-.414.048-.614.143a1.14 1.14 0 0 0-.49.456h-.02v-.501h-.943zm5.023 1.804c0-.144.014-.286.042-.425.028-.14.075-.263.143-.37.067-.106.157-.193.269-.26s.251-.101.419-.101a.82.82 0 0 1 .423.1.793.793 0 0 1 .272.262c.068.106.115.23.143.369a2.155 2.155 0 0 1 0 .846 1.12 1.12 0 0 1-.143.37.753.753 0 0 1-.272.26.843.843 0 0 1-.423.098.823.823 0 0 1-.42-.098.762.762 0 0 1-.268-.26 1.12 1.12 0 0 1-.143-.37 2.103 2.103 0 0 1-.042-.421zm-.992 0c0 .288.044.548.132.78a1.645 1.645 0 0 0 .964.975c.229.088.485.132.769.132s.541-.044.772-.132a1.644 1.644 0 0 0 .968-.975c.088-.232.132-.492.132-.78 0-.288-.044-.55-.132-.784a1.686 1.686 0 0 0-.378-.599 1.684 1.684 0 0 0-.59-.383c-.23-.09-.488-.136-.772-.136s-.54.046-.769.136a1.68 1.68 0 0 0-.586.383 1.686 1.686 0 0 0-.378.6 2.204 2.204 0 0 0-.132.783zm8.509 1.797l1.139-3.601h-1.02l-.664 2.437h-.014l-.615-2.437h-.964l-.6 2.444h-.015l-.663-2.444h-1.048l1.145 3.6h1.027l.615-2.416h.014l.643 2.417h1.02z"/></g></g></svg>