<svg width="407" height="101" xmlns="http://www.w3.org/2000/svg" xmlns:xlink="http://www.w3.org/1999/xlink"><defs><path id="a" d="M.06 99h404.594V.821H.06z"/></defs><g fill="none" fill-rule="evenodd"><path d="M315.196 44.613C313.98 52.6 307.88 52.6 301.98 52.6h-3.357l2.355-14.912a1.854 1.854 0 0 1 1.832-1.565h1.539c4.015 0 7.809 0 9.765 2.288 1.17 1.369 1.524 3.398 1.082 6.202zm-2.568-20.837h-22.251a3.091 3.091 0 0 0-3.053 2.61l-8.997 57.053a1.854 1.854 0 0 0 1.832 2.143h11.416a2.163 2.163 0 0 0 2.137-1.827l2.552-16.174a3.091 3.091 0 0 1 3.053-2.61h7.041c14.656 0 23.114-7.093 25.325-21.15.995-6.148.04-10.979-2.839-14.361-3.164-3.718-8.772-5.684-16.216-5.684z" fill="#0093C7"/><path d="M156.499 44.613c-1.216 7.987-7.316 7.987-13.215 7.987h-3.357l2.354-14.912a1.856 1.856 0 0 1 1.832-1.565h1.539c4.016 0 7.81 0 9.765 2.288 1.171 1.369 1.525 3.398 1.082 6.202zm-2.567-20.837h-22.251a3.091 3.091 0 0 0-3.053 2.61l-8.998 57.053a1.855 1.855 0 0 0 1.832 2.143h10.624a3.092 3.092 0 0 0 3.054-2.609l2.428-15.392a3.09 3.09 0 0 1 3.053-2.61h7.041c14.655 0 23.114-7.093 25.325-21.15.995-6.148.04-10.979-2.839-14.361-3.165-3.718-8.773-5.684-16.216-5.684zm51.655 41.319c-1.029 6.088-5.862 10.175-12.026 10.175-3.09 0-5.564-.994-7.154-2.876-1.576-1.866-2.169-4.524-1.67-7.484.96-6.033 5.87-10.252 11.94-10.252 3.026 0 5.482 1.004 7.104 2.903 1.632 1.913 2.273 4.589 1.806 7.534zm14.848-20.737h-10.654c-.913 0-1.69.663-1.832 1.566l-.469 2.979-.745-1.08c-2.307-3.349-7.449-4.468-12.584-4.468-11.771 0-21.826 8.92-23.783 21.431-1.019 6.241.427 12.205 3.966 16.368 3.251 3.825 7.891 5.417 13.419 5.417 9.488 0 14.75-6.095 14.75-6.095l-.476 2.961a1.855 1.855 0 0 0 1.832 2.145h9.595a3.09 3.09 0 0 0 3.053-2.609l5.76-36.472a1.853 1.853 0 0 0-1.832-2.143z" fill="#21306F"/><path d="M364.283 65.095c-1.029 6.088-5.861 10.175-12.025 10.175-3.091 0-5.564-.994-7.155-2.876-1.576-1.866-2.169-4.524-1.669-7.484.959-6.033 5.869-10.252 11.94-10.252 3.025 0 5.482 1.004 7.103 2.903 1.632 1.913 2.273 4.589 1.806 7.534zm14.848-20.737h-10.654c-.913 0-1.69.663-1.832 1.566l-.469 2.979-.744-1.08c-2.308-3.349-7.45-4.468-12.585-4.468-11.77 0-21.826 8.92-23.783 21.431-1.018 6.241.428 12.205 3.966 16.368 3.252 3.825 7.891 5.417 13.419 5.417 9.488 0 14.75-6.095 14.75-6.095l-.475 2.961a1.854 1.854 0 0 0 1.832 2.145h9.594a3.092 3.092 0 0 0 3.054-2.609l5.759-36.472a1.853 1.853 0 0 0-1.832-2.143z" fill="#0093C7"/><g transform="translate(1 1)"><mask id="b" fill="#fff"><use xlink:href="#a"/></mask><path d="M276.18 43.358h-10.709a3.092 3.092 0 0 0-2.557 1.355L248.142 66.47l-6.261-20.907a3.09 3.09 0 0 0-2.961-2.205h-10.527a1.855 1.855 0 0 0-1.756 2.453l11.792 34.612-11.091 15.65c-.871 1.228.008 2.927 1.513 2.927h10.699a3.09 3.09 0 0 0 2.541-1.331l35.614-51.399c.852-1.23-.028-2.912-1.525-2.912" fill="#21306F" mask="url(#b)"/><path d="M390.689 24.343l-9.132 58.096a1.855 1.855 0 0 0 1.832 2.143h9.185a3.091 3.091 0 0 0 3.053-2.609l9.004-57.053a1.854 1.854 0 0 0-1.832-2.144h-10.278c-.913 0-1.69.665-1.832 1.567M74.981 25.764c1.198-7.637-.008-12.834-4.139-17.541C66.294 3.041 58.078.821 47.566.821H17.051a4.366 4.366 0 0 0-4.312 3.685L.033 85.079a2.619 2.619 0 0 0 2.587 3.027h18.838l-1.3 8.245A2.292 2.292 0 0 0 22.421 99h15.878a3.82 3.82 0 0 0 3.773-3.224l.156-.807 2.991-18.968.193-1.048a3.819 3.819 0 0 1 3.772-3.224h2.375c15.383 0 27.428-6.25 30.947-24.324 1.471-7.552.711-13.856-3.178-18.288-1.177-1.34-2.64-2.449-4.347-3.353" fill="#0093C7" mask="url(#b)"/><path d="M74.981 25.764c1.198-7.637-.008-12.834-4.139-17.541C66.294 3.041 58.078.821 47.566.821H17.051a4.366 4.366 0 0 0-4.312 3.685L.033 85.079a2.619 2.619 0 0 0 2.587 3.027h18.838L26.19 58.1l-.147.941a4.351 4.351 0 0 1 4.297-3.686h8.954c17.584 0 31.352-7.144 35.375-27.804.119-.611.221-1.204.312-1.787" fill="#1B1E58" mask="url(#b)"/><path d="M31.273 25.866a3.822 3.822 0 0 1 3.773-3.225h23.919c2.834 0 5.476.186 7.891.575.691.111 1.362.239 2.015.384a28.758 28.758 0 0 1 2.804.768c1.186.393 2.29.858 3.306 1.396 1.198-7.637-.008-12.834-4.139-17.541C66.294 3.041 58.078.821 47.566.821H17.051a4.366 4.366 0 0 0-4.312 3.685L.033 85.079a2.619 2.619 0 0 0 2.587 3.027h18.838l9.815-62.24" fill="#21306F" mask="url(#b)"/></g></g></svg>