<?xml version="1.0" encoding="UTF-8" standalone="no"?>
<svg width="69px" height="50px" viewBox="0 0 69 50" version="1.1" xmlns="http://www.w3.org/2000/svg" xmlns:xlink="http://www.w3.org/1999/xlink">
    <!-- Generator: Sketch 3.8.3 (29802) - http://www.bohemiancoding.com/sketch -->
    <title>ico-receipt-bank-white</title>
    <desc>Created with Sketch.</desc>
    <defs></defs>
    <g id="logos-white" stroke="none" stroke-width="1" fill="none" fill-rule="evenodd">
        <g id="ico-receipt-bank-white" transform="translate(-75.000000, -15.000000)" fill="#FFFFFF">
            <g transform="translate(75.000000, 15.000000)">
                <path d="M58.1533844,7.41683168 C57.7366327,8.8019802 57.3277721,10.1940594 56.9070748,11.5752475 C54.5836224,10.9673267 52.2606633,10.3594059 49.9327721,9.75594059 C50.0235204,9.65742574 49.8578061,9.62821782 49.8035544,9.57722772 C49.8464626,9.51881188 49.8380782,9.44356436 49.7872789,9.39851485 C49.8617517,9.22128713 49.707381,9.07871287 49.6092347,8.97623762 C49.6501701,8.95247525 49.6708844,8.90792079 49.690119,8.86237624 C49.7655782,8.85742574 49.7808673,8.91287129 49.8356122,8.92722772 C49.8957823,8.92871287 49.9184694,8.88217822 49.9815986,8.87871287 C50.0812245,8.87277228 50.207483,8.97772277 50.2893537,8.87871287 C50.2765306,8.79950495 50.1522449,8.83217822 50.0945408,8.79752475 C50.0580442,8.72623762 49.994915,8.68118812 50.0136565,8.5539604 C49.9312925,8.50247525 49.9115646,8.58465347 49.8356122,8.58613861 C49.8405442,8.46831683 49.7202041,8.47524752 49.7063946,8.37524752 C49.7660714,8.36584158 49.800102,8.42524752 49.8356122,8.39158416 C49.8134184,8.37079208 49.8203231,8.32079208 49.8203231,8.27772277 C49.8247619,8.19009901 49.7448639,8.32772277 49.7389456,8.27772277 C49.6792687,8.28316832 49.690119,8.21881188 49.6743367,8.18019802 C49.6842007,8.10049505 49.7616327,8.18910891 49.8203231,8.16386139 C49.8173639,8.06881188 49.7710034,8.01831683 49.7063946,7.98564356 C49.6876531,7.91188119 49.632415,7.87623762 49.6092347,7.80693069 C49.5017177,7.83366337 49.5002381,7.7539604 49.4311905,7.74158416 C49.4109694,7.79207921 49.379898,7.83910891 49.3828571,7.88811881 C49.3887755,8.0009901 49.5165136,8.0980198 49.5766837,8.16386139 C49.5318027,8.24306931 49.437602,8.12722772 49.3507993,8.18019802 C49.3626361,8.25643564 49.3660884,8.37821782 49.2536395,8.40792079 C49.1653571,8.38762376 49.2383503,8.33811881 49.2373639,8.27772277 C49.2191156,8.21287129 49.1263946,8.16683168 49.1239286,8.13168317 C49.1180102,8.04455446 49.0011224,8.03019802 48.930102,7.90445545 C48.72,7.91386139 48.6371429,7.76336634 48.4117517,7.75792079 C48.4472619,7.82722772 48.4230952,7.9019802 48.3639116,7.98564356 C48.3530612,8.0539604 48.4512075,8.06732673 48.4117517,8.11534653 C48.3264286,8.09554455 48.3742687,8.19752475 48.3796939,8.22920792 C48.3155782,8.20148515 48.2376531,8.1970297 48.1690986,8.1480198 C48.0556633,8.06584158 48.0379082,7.93514851 47.9101701,7.9529703 C47.8361905,7.96287129 47.8184354,8.03267327 47.7646769,8.0990099 C47.7922959,8.2480198 47.9757653,8.22475248 47.9589966,8.35891089 C47.9461735,8.45841584 47.7661565,8.46287129 47.7484014,8.5539604 C47.6295408,8.5 47.6265816,8.67277228 47.4736905,8.63514851 C47.532381,8.83069307 47.784898,8.83217822 47.9101701,8.95990099 C47.8554252,9.05891089 47.8771259,9.17920792 47.9101701,9.21980198 C45.3415986,8.57326733 42.8460204,7.8970297 40.2404592,7.23811881 C37.8657143,6.63811881 35.482585,5.96386139 33.0723299,5.3539604 C32.8952721,5.30990099 32.690102,5.23316832 32.5865306,5.24059406 C32.4947959,5.2470297 32.2985034,5.38168317 32.150051,5.46782178 C27.8863605,7.94554455 23.5605272,10.3945545 19.3017687,12.8584158 C19.074898,12.7524752 18.782432,12.6569307 18.5087075,12.7608911 C18.454949,12.7915842 18.5368197,12.8648515 18.4929252,12.8905941 C18.3928061,12.8752475 18.3617347,12.8435644 18.2823299,12.8584158 C18.1955272,12.8737624 18.157551,13.0064356 18.0234014,12.9554455 C17.9735884,12.9772277 18.0534864,13.0277228 18.0071259,13.0529703 C17.900102,13.0430693 17.9045408,13.1445545 17.8132993,13.150495 C17.7560884,13.2252475 17.7555952,13.2930693 17.6673129,13.3128713 C17.5627551,13.3366337 17.4552381,13.2292079 17.3442687,13.2316832 C17.2885374,13.3391089 17.4591837,13.3886139 17.5218197,13.3777228 C17.5094898,13.5524752 17.5814966,13.6272277 17.6673129,13.7351485 C17.542534,13.720297 17.5415476,13.8133663 17.5380952,13.8816832 C14.9433844,15.3534653 12.3679082,16.8455446 9.7870068,18.3316832 C9.12957483,17.0950495 8.50913265,15.9069307 7.84528912,14.6450495 C7.77426871,14.509901 7.57156463,14.2059406 7.60263605,14.0925743 C7.62187075,14.0242574 7.97253401,13.8490099 8.08794218,13.7841584 C9.29134354,13.1113861 10.4646599,12.4524752 11.6478401,11.7861386 C15.3917007,9.67871287 19.0719388,7.5950495 22.7970578,5.46782178 C23.1339116,5.27524752 23.4687925,5.08316832 23.8164966,4.91584158 C23.8243878,5.04851485 23.8697619,5.14405941 23.9782653,5.17574257 C24.0478061,5.16138614 24.072466,5.09207921 24.140034,5.06188119 C24.1932993,5.03811881 24.2736905,5.06435644 24.3180782,5.01336634 C24.4181973,5.0970297 24.5242347,5.17475248 24.6741667,5.20792079 C24.7303912,5.28712871 24.8112755,5.34158416 24.8847619,5.4029703 C24.942466,5.42673267 24.9858673,5.35643564 25.0465306,5.41930693 C25.1002891,5.37574257 25.1185374,5.2970297 25.1594728,5.24059406 C25.2082993,5.2509901 25.2156973,5.3029703 25.2886905,5.28910891 C25.3853571,5.26138614 25.382398,5.13415842 25.4992857,5.12673267 C25.5130952,5.05990099 25.550085,5.01534653 25.5643878,4.9480198 C25.5293707,4.82623762 25.3769728,4.82178218 25.3695748,4.67227723 C25.3394898,4.66485149 25.2378912,4.64554455 25.2082993,4.59059406 C25.1816667,4.50990099 25.2645238,4.53910891 25.2566327,4.47722772 C25.0928912,4.49752475 25.0489966,4.24356436 25.0785884,4.2009901 C25.1323469,4.12475248 25.337517,4.03267327 25.4992857,3.94108911 C26.499983,3.37475248 27.5539456,2.76534653 28.525051,2.21930693 C29.7984864,1.5039604 30.9668707,0.867326733 32.0361224,0.237623762 C40.7469728,2.62524752 49.4558503,5.01633663 58.1533844,7.41683168 L58.1533844,7.41683168 Z" id="Fill-1"></path>
                <path id="Fill-10"></path>
                <path d="M67.3278401,14.2712871 C67.3855442,14.1826733 67.2489286,14.0891089 67.2795068,14.0277228 C67.4062585,14.0950495 67.4116837,14.2851485 67.6355952,14.2549505 C67.6198129,14.5777228 67.8678912,15.0118812 67.6355952,15.2133663 C67.5359694,15.3 67.2489286,15.3163366 67.0368537,15.3430693 C66.417398,15.4212871 65.6603401,15.5074257 65.1114116,15.5866337 C65.3106633,17.1767327 65.4946259,18.7064356 65.7096599,20.3133663 C65.7787075,20.8257426 65.7989286,21.4143564 66.0169218,21.7752475 C66.1486054,21.9920792 66.4055612,22.0950495 66.7616497,22.0188119 C67.307619,21.9014851 67.4979932,21.3866337 67.425,20.6866337 C67.4028061,20.4732673 67.3401701,20.240099 67.5221599,20.1346535 C67.6247449,20.0752475 67.862466,20.0792079 68.072568,20.0534653 C68.3531973,20.0188119 68.6205102,19.9019802 68.8005272,20.0371287 C68.9060714,20.1163366 68.9297449,20.3673267 68.9460204,20.5079208 C68.9687075,20.6960396 68.987449,20.9158416 68.9948469,21.0767327 C69.0456463,22.1970297 68.6560204,23.1222772 68.1366837,23.6430693 C67.5542177,24.2277228 66.5811395,24.5836634 65.4832823,24.6336634 C64.5457143,24.6767327 63.7422959,24.3841584 63.2180272,23.870297 C62.820017,23.480198 62.5522109,22.9227723 62.4086905,22.3113861 C62.2597449,21.6752475 62.2143707,20.9539604 62.1172109,20.2321782 C61.9283163,18.8207921 61.7591497,17.4549505 61.5835714,16.0415842 C61.4168707,16.0693069 61.2057823,16.0940594 60.9843367,16.1227723 C60.6760884,16.1628713 60.2810374,16.2752475 60.1602041,16.0415842 C60.1118707,15.9485149 60.1020068,15.6965347 60.0788265,15.5217822 C60.0443027,15.270297 59.9530612,14.9311881 60.095102,14.7910891 C60.1592177,14.7277228 60.2958333,14.7039604 60.4028571,14.6608911 C61.8331293,14.0866337 62.5630612,12.7594059 62.9428231,11.0881188 C62.9891837,10.8831683 62.9946088,10.7118812 63.1376361,10.6331683 C63.212602,10.5915842 63.6130782,10.5262376 63.7191156,10.5351485 C63.8004932,10.5425743 63.7842177,10.5737624 63.8976531,10.600495 C63.9597959,10.6089109 63.9080102,10.5029703 63.9622619,10.5029703 C64.1353741,10.4861386 64.3203231,10.4693069 64.415017,10.5678218 C64.3952891,10.6336634 64.2877721,10.5866337 64.237466,10.5841584 C64.2784014,10.6930693 64.3908503,10.7361386 64.480119,10.7143564 C64.5156293,10.8460396 64.5230272,11.0064356 64.5447279,11.1529703 C64.4658163,11.1108911 64.4002211,10.9524752 64.4968878,10.8767327 C64.445102,10.8465347 64.4307993,10.780198 64.3509014,10.7792079 C64.2882653,10.8069307 64.3607653,10.8564356 64.3666837,10.9089109 C64.2631122,10.890099 64.2152721,10.9024752 64.1403061,10.9415842 C64.155102,11.0514851 64.2364796,11.0940594 64.3341327,11.120297 C64.3972619,11.2193069 64.5042857,11.2742574 64.5772789,11.3638614 C64.6961395,12.2792079 64.8105612,13.1975248 64.9328741,14.1089109 C65.5626871,14.0262376 66.1890476,13.939604 66.8267517,13.8653465 C66.7942007,13.8980198 66.8218197,13.9084158 66.842534,13.930198 C66.9732313,13.9782178 67.0062755,14.1232673 67.1014626,14.2064356 C67.2015816,14.2029703 67.2504082,14.2514851 67.3278401,14.2712871 L67.3278401,14.2712871 Z" id="Fill-11"></path>
                <path d="M43.8486905,12.5168317 C44.7403912,12.4549505 45.3716837,12.7990099 45.6454082,13.3940594 C45.8170408,13.769802 45.847619,14.3569307 45.6454082,14.7747525 C45.2237245,15.6425743 43.7179932,16.0282178 42.6995408,15.6356436 C42.1777381,15.4336634 41.6939116,14.8925743 41.7452041,14.0925743 C41.7688776,13.7183168 41.9557993,13.3519802 42.1496259,13.150495 C42.3873469,12.9034653 42.8371429,12.6821782 43.2987755,12.5821782 C43.4738605,12.5440594 43.6568367,12.530198 43.8486905,12.5168317" id="Fill-12"></path>
                <path d="M53.5903231,25.2831683 C53.6712075,25.8430693 53.6998129,26.370297 53.8004252,26.9242574 C53.8448129,27.1668317 53.9104082,27.4282178 54.0914116,27.5247525 C54.2255612,27.5960396 54.5056973,27.5980198 54.7552551,27.589604 C55.0314456,27.5806931 55.2657143,27.5252475 55.4023299,27.6386139 C55.5507823,27.7613861 55.5379592,28.0217822 55.5640986,28.2237624 C55.5927041,28.4450495 55.6898639,28.6752475 55.5803741,28.8559406 C55.4940646,29 55.1498129,29.0108911 54.852415,29.0514851 C53.2618537,29.2658416 51.6318367,29.4891089 50.0467007,29.6846535 C49.7823469,29.7173267 49.3567177,29.8054455 49.2210884,29.7173267 C49.0825,29.6277228 49.0755952,29.3277228 49.042551,29.0841584 C49.0070408,28.8153465 48.9414456,28.5485149 49.0593197,28.4178218 C49.162398,28.3039604 49.522432,28.3009901 49.7226701,28.2391089 C49.8962755,28.1861386 50.1468197,28.0871287 50.2084694,27.8985149 C50.3115476,27.5777228 50.1798639,26.9455446 50.127585,26.55 C49.7843197,23.9841584 49.4839626,21.4732673 49.1402041,18.8673267 C49.0844728,18.4460396 49.0109864,17.9267327 48.7520578,17.8118812 C48.607551,17.7480198 48.4033673,17.7579208 48.2184184,17.7633663 C48.0462925,17.7683168 47.8095578,17.8153465 47.6837925,17.7470297 C47.5506293,17.6747525 47.5412585,17.4371287 47.5057483,17.1787129 C47.4751701,16.9519802 47.4194388,16.6529703 47.4736905,16.5287129 C47.5358333,16.3856436 47.7143707,16.3490099 47.9589966,16.3178218 C49.2363776,16.1529703 50.2967517,15.9688119 51.4222279,15.6519802 C51.6052041,15.6 51.7980442,15.5069307 51.9558673,15.5707921 C52.2631293,15.6955446 52.1427891,16.3678218 52.2468537,16.7074257 C52.3464796,16.6143564 52.4179932,16.500495 52.5057823,16.3990099 C53.135102,15.6707921 54.057381,15.1292079 55.3702721,15.0673267 C56.257534,15.0247525 57.0703231,15.2811881 57.6680782,15.6356436 C58.2692857,15.9930693 58.7328912,16.4816832 59.1082143,17.0485149 C59.8588605,18.1836634 60.3106293,19.9188119 60.1271599,21.6450495 C59.9530612,23.2871287 59.2004422,24.5752475 58.0562245,25.2831683 C57.4925,25.6321782 56.699932,25.8920792 55.8230272,25.9 C54.9545068,25.9089109 54.225068,25.6470297 53.5903231,25.2831683 L53.5903231,25.2831683 Z M53.622381,17.4059406 C53.2564286,17.6217822 52.9846769,18.029703 52.8781463,18.4940594 C52.7262415,19.1574257 52.8978741,19.8757426 52.9748129,20.4920792 C53.067534,21.2242574 53.1153741,22.0143564 53.2662925,22.6683168 C53.4147449,23.3118812 53.6973469,23.7737624 54.1560204,24.0326733 C54.6033503,24.2851485 55.1996259,24.2881188 55.6612585,24 C56.1514966,23.6935644 56.4242347,23.0990099 56.4212755,22.3272277 C56.4207823,21.9529703 56.325102,21.4787129 56.2762755,21.0767327 C56.2269558,20.6722772 56.1820748,20.2381188 56.1307823,19.8257426 C55.9877551,18.6886139 55.8506463,17.6217822 54.9979082,17.2762376 C54.7685714,17.1831683 54.4642687,17.1886139 54.2531803,17.2108911 C53.9977041,17.2386139 53.7723129,17.3173267 53.622381,17.4059406 L53.622381,17.4059406 Z" id="Fill-14"></path>
                <path d="M45.710017,16.3341584 C45.9620408,16.3128713 46.0394728,16.4678218 46.0818878,16.7886139 C46.4118367,19.270297 46.7052891,21.6623762 47.0204422,24.1787129 C47.0608844,24.5019802 47.1333844,25.029703 47.3439796,25.1371287 C47.6009354,25.2683168 47.9920408,25.0985149 48.1853741,25.2183168 C48.3279082,25.3064356 48.3293878,25.5668317 48.3639116,25.8193069 C48.3984354,26.080198 48.4645238,26.3465347 48.3796939,26.4851485 C48.3022619,26.6128713 47.9688605,26.6485149 47.7163435,26.680198 C46.1445238,26.8787129 44.7793537,27.0747525 43.2178912,27.2648515 C42.9786905,27.2940594 42.634932,27.3727723 42.4894388,27.2806931 C42.34,27.1861386 42.3469048,26.9242574 42.3113946,26.6475248 C42.2798299,26.3980198 42.2236054,26.1341584 42.3276701,25.9980198 C42.4455442,25.8440594 42.7597109,25.8539604 42.9421939,25.8029703 C43.1187585,25.7539604 43.3545068,25.6767327 43.4442687,25.5108911 C43.5453741,25.3232673 43.4960544,24.9475248 43.4605442,24.6336634 C43.287432,23.1237624 43.0985374,21.8381188 42.8943537,20.2643564 C42.8534184,19.9509901 42.8287585,19.700495 42.7804252,19.3876238 C42.7355442,19.090099 42.6734014,18.7470297 42.4894388,18.6564356 C42.3572619,18.5915842 42.1442007,18.5727723 41.9395238,18.5752475 C41.7239966,18.5777228 41.4966327,18.6267327 41.3733333,18.5589109 C41.2342517,18.4836634 41.2288265,18.2405941 41.1947959,17.9905941 C41.1582993,17.7222772 41.102568,17.4554455 41.1469558,17.3410891 C41.1938095,17.2158416 41.4330102,17.1539604 41.6322619,17.129703 C42.9052041,16.9727723 44.0306803,16.7811881 45.1596088,16.480198 C45.3435714,16.4306931 45.5295068,16.3490099 45.710017,16.3341584" id="Fill-15"></path>
                <path d="M35.3538605,23.2207921 C35.4411565,23.9965347 35.552619,24.6569307 35.8066156,25.2831683 C36.062585,25.9138614 36.4892007,26.5237624 37.2955782,26.5826733 C38.1922109,26.6485149 38.7337415,26.3564356 39.1401361,25.949505 C39.4602211,25.6282178 39.6683503,25.2722772 39.7872109,24.7475248 C39.8276531,24.569802 39.8251871,24.2227723 39.9810374,24.130198 C40.0619218,24.0826733 40.2059354,24.0806931 40.3213435,24.0653465 C40.4357653,24.049505 40.5516667,24.0331683 40.677432,24.0163366 C40.8722449,23.9905941 41.2209354,23.9089109 41.3565646,24.0326733 C41.5341156,24.1940594 41.4127891,24.7331683 41.3565646,25.0074257 C41.1637245,25.9509901 40.7154082,26.7252475 40.1265306,27.2326733 C39.2081973,28.0252475 37.7779252,28.4207921 36.1784864,28.320297 C36.1484014,28.2806931 36.1740476,28.1851485 36.1464286,28.1415842 C36.1114116,28.1326733 36.0137585,28.1029703 35.9846599,28.1415842 C35.9826871,28.0272277 35.8184524,27.9985149 35.8875,27.8658416 C35.7794898,27.8009901 35.7069898,27.700495 35.6611224,27.5737624 C35.5185884,27.5752475 35.3632313,27.5128713 35.3370918,27.6544554 C35.2660714,27.6455446 35.2892517,27.5410891 35.2083673,27.5410891 C35.0520238,27.5188119 34.9573299,27.4351485 34.8685544,27.3460396 C34.7644898,27.3133663 34.7876701,27.4722772 34.7067857,27.4113861 C34.5982823,27.3727723 34.5247959,27.3009901 34.479915,27.199505 C34.3166667,27.120297 34.1534184,27.040099 33.9946088,26.9564356 C33.8357993,26.9821782 33.6898129,26.939604 33.5413605,26.9891089 C33.4747789,27.0054455 33.5655272,27.1193069 33.4930272,27.1514851 C33.3559184,27.1608911 33.2873639,27.0633663 33.1532143,27.1183168 C32.4272279,26.4435644 31.8985204,25.6381188 31.6159184,24.5683168 C31.3130952,23.4232673 31.2933673,22.1108911 31.6321939,20.9792079 C31.9182483,20.0222772 32.5732143,19.1282178 33.314983,18.5752475 C34.1070578,17.9851485 35.1279762,17.610396 36.3728061,17.5519802 C37.8721259,17.4821782 39.032619,18.1 39.7221088,18.9 C40.317398,19.5905941 40.7622619,20.5693069 40.9684184,21.7425743 C41.0152721,22.009901 41.0936905,22.330198 40.920085,22.4574257 C40.8036905,22.5420792 40.4747279,22.5584158 40.2567347,22.5871287 C38.6365816,22.8009901 36.9103912,23.0089109 35.3538605,23.2207921 L35.3538605,23.2207921 Z M36.4862415,19.1925743 C36.3486395,19.120297 36.132619,19.1064356 35.9363265,19.1277228 C34.902585,19.240099 34.9938265,20.7123762 35.1753231,21.7425743 C35.8623469,21.6361386 36.6011565,21.5821782 37.2630272,21.450495 C37.1101361,20.6351485 37.1121088,19.5207921 36.4862415,19.1925743 L36.4862415,19.1925743 Z" id="Fill-16"></path>
                <path d="M27.0040306,20.5405941 C26.4832143,20.2064356 25.6901531,20.420297 25.3695748,20.7193069 C24.5646769,21.470297 24.6302721,23.4871287 24.8359354,24.8935644 C24.937534,25.5871287 25.1111395,26.2559406 25.3863435,26.8267327 C25.6945918,27.4658416 26.1552381,28.0321782 27.117466,27.9633663 C28.2029932,27.8851485 28.7607993,27.0554455 28.9782993,26.1277228 C29.0123299,25.9831683 29.0369898,25.7866337 29.0591837,25.5920792 C29.0843367,25.3712871 29.074966,25.0524752 29.2372279,24.9584158 C29.3846939,24.8732673 29.6579252,24.8915842 29.9005782,24.8608911 C30.1826871,24.8252475 30.3809524,24.7544554 30.5155952,24.8772277 C30.6314966,24.9831683 30.6171939,25.3153465 30.6127551,25.4950495 C30.5762585,27.0366337 29.9651871,28.1772277 29.0754592,28.8405941 C28.3188946,29.4044554 27.1618537,29.8074257 25.7744898,29.7173267 C23.7060204,29.5841584 22.3147109,28.4806931 21.5507483,26.9564356 C21.1542177,26.1643564 20.7754422,24.8143564 20.9362245,23.4480198 C20.9579252,23.2633663 21.0037925,23.0633663 21.0496599,22.8633663 C21.0930612,22.6737624 21.1122959,22.440099 21.1951531,22.3113861 C21.2365816,22.2465347 21.2262245,22.2549505 21.3243707,22.1970297 C21.3367007,22.0826733 21.2306633,22.1529703 21.2918197,22.0188119 C21.3495238,21.8940594 21.6158503,21.9133663 21.6316327,21.7425743 C21.6868707,21.7381188 21.7633163,21.7554455 21.7934014,21.7262376 C21.862449,21.6594059 21.8994388,21.5618812 21.9714456,21.4990099 C22.0380272,21.4613861 22.0483844,21.5435644 22.117432,21.5475248 C22.1997959,21.4410891 22.4163095,21.5475248 22.5381293,21.4668317 C22.5835034,21.3727723 22.4187755,21.3915842 22.4089116,21.3044554 C22.4986735,21.2559406 22.4814116,21.0821782 22.4572449,20.9628713 C22.4385034,20.8707921 22.3807993,20.8549505 22.3438095,20.7841584 C22.2081803,20.5237624 22.3832653,20.3029703 22.6032313,20.2321782 C22.6140816,20.1643564 22.6569898,20.1267327 22.699898,20.0856436 C22.8764626,19.9183168 23.1304592,19.7772277 23.3795238,19.6311881 C24.0754252,19.2227723 24.9819218,18.9490099 26.0334184,18.9 C27.3152381,18.8405941 28.4392347,19.2559406 29.1237925,19.8584158 C29.5913435,20.270297 30.0510034,20.9772277 30.0302891,21.7910891 C30.0011905,22.9207921 29.0858163,23.4960396 28.0234694,23.4158416 C27.0780102,23.3435644 26.3939456,22.6584158 26.4866667,21.6608911 C26.5310544,21.1806931 26.7372109,20.9321782 27.0040306,20.5405941" id="Fill-17"></path>
                <path d="M15.2565646,20.2970297 L15.2891156,20.2970297 C15.4434864,20.4455446 15.6397789,20.5514851 15.8232483,20.670297 C15.9282993,20.7361386 15.8114116,20.8118812 15.9361905,20.8331683 C16.0792177,20.8569307 15.9613435,20.7366337 16.0170748,20.670297 C16.0989456,20.5985149 16.2469048,20.6118812 16.3406122,20.5569307 C16.3568878,20.5475248 16.4165646,20.530198 16.4214966,20.5247525 C16.4397449,20.5039604 16.3859864,20.4336634 16.4540476,20.4430693 C17.5435204,20.7024752 18.2897279,21.2767327 18.8652891,22.1 C19.2894388,22.7074257 19.5429422,23.4108911 19.722466,24.3089109 C19.7693197,24.5435644 19.8940986,24.9871287 19.787568,25.1534653 C19.7086565,25.2762376 19.3969558,25.299505 19.1562755,25.3321782 C17.4828571,25.5579208 15.8045068,25.7579208 14.1562415,25.9816832 C14.2243027,26.679703 14.3298469,27.2064356 14.5123299,27.7519802 C14.6923469,28.2905941 14.9182313,28.7737624 15.3211735,29.0678218 C15.4587755,29.1673267 15.6560544,29.269802 15.8390306,29.3113861 C16.5655102,29.4757426 17.3215816,29.2039604 17.7161395,28.9217822 C18.2078571,28.569802 18.5156122,27.9955446 18.6384184,27.2648515 C18.6630782,27.1163366 18.6581463,26.9851485 18.7676361,26.9079208 C18.8958673,26.8173267 19.2534354,26.8049505 19.4635374,26.7777228 C19.7461395,26.7415842 20.0297279,26.6757426 20.1594388,26.7940594 C20.3088776,26.929703 20.234898,27.3272277 20.1914966,27.589604 C19.8867007,29.4440594 18.6754082,30.5410891 16.9556293,30.9356436 C15.8686224,31.1851485 14.6020918,31.1282178 13.6546599,30.8381188 C12.7101871,30.5490099 11.9634864,29.9930693 11.4214626,29.3113861 C10.6037415,28.2826733 10.0508673,26.8059406 10.2077041,24.9425743 C10.3487585,23.2653465 11.099898,22.1 12.1982483,21.2881188 C12.7930442,20.8480198 13.599915,20.5034653 14.5606633,20.3618812 C14.7036905,20.3410891 14.8605272,20.3084158 14.9813605,20.3133663 C15.0065136,20.3143564 15.037585,20.3074257 15.0627381,20.3133663 C15.0938095,20.320297 15.1298129,20.3673267 15.1756803,20.3618812 C15.2230272,20.3569307 15.1998469,20.3049505 15.2565646,20.2970297 L15.2565646,20.2970297 Z M15.2891156,21.9534653 C15.1510204,21.8816832 14.935,21.8673267 14.7387075,21.8886139 C13.704966,22.0014851 13.7962075,23.4737624 13.9781973,24.5039604 C14.6652211,24.3970297 15.4035374,24.3430693 16.0654082,24.2113861 C15.9130102,23.3960396 15.914983,22.2821782 15.2891156,21.9534653 L15.2891156,21.9534653 Z" id="Fill-18"></path>
                <path d="M6.1625,23.9029703 C5.69248299,24.0460396 5.6180102,24.6787129 5.59630952,25.2673267 C5.5464966,26.5990099 5.74969388,27.6633663 5.90357143,28.8242574 C5.95732993,29.2272277 5.99431973,30.249505 6.30848639,30.4 C6.48455782,30.4841584 6.71931973,30.4871287 6.95556122,30.4811881 C7.18144558,30.4757426 7.47489796,30.4019802 7.63518707,30.4648515 C7.79843537,30.5287129 7.8117517,30.799505 7.84528912,31.05 C7.87586735,31.2772277 7.97352041,31.650495 7.84528912,31.7965347 C7.76982993,31.8831683 7.39352041,31.9346535 7.19821429,31.9589109 C5.57214286,32.1658416 3.77345238,32.3940594 2.21445578,32.5930693 C2.13307823,32.6247525 2.19078231,32.5188119 2.14984694,32.5108911 C2.10397959,32.4886139 2.05712585,32.4693069 2.02013605,32.5108911 C2.02210884,32.3841584 1.89732993,32.3861386 1.90670068,32.2514851 C1.86428571,32.1861386 1.78981293,32.1519802 1.72865646,32.1049505 C1.70646259,32.0351485 1.81151361,32.0584158 1.76120748,32.0079208 C1.63494898,31.8910891 1.42632653,31.8564356 1.38884354,31.650495 C1.37010204,31.5876238 1.22460884,31.6534653 1.22707483,31.5693069 C1.17578231,31.1747525 1.56096939,31.2420792 1.90670068,31.1465347 C2.23171769,31.0574257 2.4654932,30.9579208 2.47338435,30.5460396 C2.47831633,30.2782178 2.43096939,29.9841584 2.3925,29.7009901 C2.1745068,28.0990099 2.00188776,26.5217822 1.76120748,24.8608911 C1.70695578,24.4886139 1.68130952,24.089604 1.40561224,23.9678218 C1.07714286,23.8227723 0.557806122,24.0222772 0.337346939,23.9029703 C0.198265306,23.8272277 0.189387755,23.5574257 0.159302721,23.3341584 C0.129217687,23.1128713 0.054744898,22.8306931 0.110969388,22.6846535 C0.158809524,22.5584158 0.362993197,22.5019802 0.595782313,22.4737624 C1.88105442,22.3153465 2.93797619,22.1168317 4.05901361,21.8074257 C4.22028912,21.7628713 4.46146259,21.6564356 4.60942177,21.709901 C4.80571429,21.7816832 4.8027551,22.1128713 4.83579932,22.3762376 C4.87081633,22.6569307 4.91767007,22.8945545 4.93295918,23.1554455 C4.98918367,23.1529703 5.02173469,23.080198 5.04590136,23.0415842 C5.2737585,22.6831683 5.49767007,22.3574257 5.83896259,22.0836634 C6.22513605,21.7737624 6.66802721,21.5292079 7.29537415,21.4826733 C7.38809524,21.4757426 7.47687075,21.4767327 7.57057823,21.4826733 C8.73304422,21.5554455 9.50884354,22.3910891 9.57690476,23.4643564 C9.61093537,24.0024752 9.39984694,24.5064356 9.07482993,24.8287129 C8.50173469,25.3980198 7.16812925,25.5980198 6.53486395,24.9747525 C6.28333333,24.7272277 6.18568027,24.4262376 6.1625,23.9029703" id="Fill-19"></path>
                <path d="M53.0719728,32.0727723 C53.0828231,32.1356436 53.0103231,32.0643564 52.9590306,32.0891089 C52.9856633,32.1658416 53.0290646,32.2381188 52.9748129,32.3163366 C52.9846769,32.4153465 53.1563095,32.4371287 53.1045238,32.5435644 C53.0088435,32.659901 52.8406633,32.5658416 52.7321599,32.4955446 C52.642398,32.4366337 52.597517,32.309901 52.5057823,32.3 C52.4732313,32.3752475 52.5531293,32.460396 52.4895068,32.5435644 C52.557568,32.6163366 52.6172449,32.6975248 52.6187245,32.8356436 C52.6044218,32.9138614 52.5294558,32.8059406 52.457449,32.8356436 C52.5269898,32.9450495 52.6261224,33.0242574 52.8130442,33.0148515 C52.8648299,33.0975248 52.962483,33.1356436 52.9910884,33.2415842 C53.1040306,33.2638614 53.1844218,33.3193069 53.2505102,33.3886139 C53.4759014,35.1861386 53.7047449,36.9816832 53.9459184,38.7648515 C54.127415,38.5712871 54.2906633,38.3306931 54.4642687,38.0985149 C54.8080272,37.6371287 55.1572109,37.2019802 55.4994898,36.7014851 C55.5922109,36.5658416 55.9231463,36.1376238 55.8555782,35.8574257 C55.8102041,35.669802 55.4610204,35.5509901 55.2242857,35.5321782 C54.9757143,35.5128713 54.7103741,35.5757426 54.5929932,35.4183168 C54.4933673,35.2836634 54.515068,35.0460396 54.4958333,34.8990099 C54.4736395,34.7222772 54.4213605,34.5623762 54.4642687,34.3623762 C54.5634014,34.1950495 54.8292347,34.1905941 55.1271259,34.1514851 C56.4311395,33.9836634 57.8313265,33.7930693 59.1082143,33.6480198 C59.1935374,33.6836634 59.0273299,33.7222772 59.0273299,33.7782178 C59.0569218,33.9138614 59.2537075,33.940099 59.1723299,34.1351485 C59.2236224,34.2252475 59.3207823,34.2678218 59.447534,34.2821782 C59.564915,34.4564356 59.7641667,34.5490099 59.9496088,34.6554455 C60.0166837,34.6465347 59.9767347,34.5316832 60.0462755,34.5247525 C60.104966,34.520297 60.0679762,34.6118812 60.095102,34.6391089 C60.1187755,34.6856436 60.2647619,34.6089109 60.2243197,34.720297 C60.2179082,34.9029703 60.1168027,34.7113861 60.062551,34.7851485 C59.9658844,34.8683168 60.142449,34.8633663 60.1108844,34.9153465 C59.9076871,35.010396 59.6965986,34.9950495 59.5126361,35.0450495 C58.9715986,35.1920792 58.5587925,35.5287129 58.2179932,35.9054455 C57.7632653,36.4084158 57.3583503,36.9742574 56.9396259,37.5133663 C57.9235544,38.679703 58.9434864,39.9386139 59.997449,41.1519802 C60.3229592,41.5262376 60.7115986,42.0336634 61.2279762,42.1430693 C61.4430102,42.1886139 61.7571769,42.1074257 61.8908333,42.2559406 C61.9588946,42.3326733 61.9919388,42.5693069 62.0205442,42.7925743 C62.0560544,43.0772277 62.1339796,43.3767327 62.0047619,43.5237624 C61.9273299,43.6108911 61.617602,43.6361386 61.3734694,43.669802 C59.9895578,43.8594059 58.6959014,44.0138614 57.3114966,44.1891089 C56.9879592,44.2306931 56.5569048,44.3747525 56.4212755,44.1242574 C56.3645578,44.0188119 56.3635714,43.7975248 56.3408844,43.6212871 C56.304881,43.3420792 56.2082143,43.0014851 56.4054932,42.8742574 C56.5726871,42.7658416 56.8252041,42.8188119 57.0205102,42.6623762 C56.739881,42.1574257 56.3112925,41.7777228 55.9359694,41.3638614 C55.5576871,40.9450495 55.2006122,40.5118812 54.8193707,40.0960396 C54.6068027,40.3262376 54.4031122,40.5658416 54.2048469,40.8118812 C54.2926361,41.3549505 54.3133503,41.9079208 54.4312245,42.4514851 C54.4667347,42.6148515 54.515068,42.8084158 54.6097619,42.8905941 C54.8164116,43.070297 55.460034,42.8544554 55.6129252,43.1331683 C55.68,43.2559406 55.6696429,43.4732673 55.6933163,43.6534653 C55.7293197,43.9222772 55.8289456,44.2217822 55.6612585,44.3678218 C55.5670578,44.45 55.2297109,44.4643564 54.9816327,44.4985149 C53.5153571,44.6955446 52.1585714,44.8648515 50.6937755,45.050495 C50.4096939,45.0861386 49.9465816,45.2430693 49.7710034,45.0658416 C49.6723639,44.9673267 49.6822279,44.7371287 49.6580612,44.5465347 C49.6195918,44.2490099 49.5036905,43.9539604 49.6580612,43.7836634 C49.7507823,43.6811881 50.0309184,43.6821782 50.2563095,43.6212871 C50.6015476,43.5267327 50.8348299,43.4366337 50.8392687,43.0034653 C50.8432143,42.5985149 50.7638095,42.1653465 50.7095578,41.7371287 C50.4106803,39.3643564 50.0688946,36.850495 49.7552211,34.3955446 C49.6980102,33.9445545 49.6546088,33.3173267 49.414915,33.160396 C49.0612925,32.929703 48.362432,33.2564356 48.1853741,32.9663366 C48.1345748,32.8821782 48.1148469,32.6722772 48.0882143,32.4623762 C48.0517177,32.1678218 47.9668878,31.8990099 48.1044898,31.7480198 C48.1779762,31.6678218 48.4235884,31.6311881 48.6544048,31.6019802 C49.9115646,31.4435644 51.0306293,31.2316832 52.0845918,30.9193069 C52.2690476,30.8653465 52.4530102,30.7648515 52.6029422,30.7569307 C52.9496599,30.739604 52.9452211,31.0846535 52.9910884,31.4232673 C53.0241327,31.6618812 53.0482993,31.8371287 53.0719728,32.0727723 L53.0719728,32.0727723 Z" id="Fill-20"></path>
                <path d="M13.7838776,40.4539604 C13.7986735,40.4816832 13.6837585,40.519802 13.6709354,40.470297 C13.6462755,40.3910891 13.7113776,40.4024752 13.7680952,40.4044554 C13.7503401,40.3465347 13.7271599,40.2945545 13.7192687,40.2267327 C13.8282653,40.2277228 13.8736395,40.1059406 13.9456463,40.1608911 C13.9826361,40.0683168 14.0531633,40.0089109 14.1236905,39.95 C14.2390986,39.9915842 14.3046939,39.9648515 14.4314456,39.95 C14.4787925,39.8861386 14.3919898,39.7915842 14.5443878,39.7876238 C14.530085,39.6831683 14.4117177,39.6831683 14.3342857,39.6415842 C14.3130782,39.5420792 14.2667177,39.3633663 14.3505612,39.300495 C14.3061735,39.1990099 14.2114796,39.1475248 14.0753571,39.1381188 C14.0561224,39.0381188 13.9717857,39.0034653 13.8973129,38.9589109 C13.8884354,38.7732673 13.6955952,38.7722772 13.6709354,38.6024752 C13.5693367,38.609901 13.4983163,38.5663366 13.4282823,38.5044554 C13.3513435,38.1747525 13.3385204,37.8915842 13.0884694,37.790099 C12.7866327,37.6683168 12.2894898,37.9014851 12.0522619,37.790099 C11.892466,37.7148515 11.8830952,37.4643564 11.8421599,37.140099 C11.8031973,36.8306931 11.7336565,36.5212871 11.9230442,36.4094059 C12.0364796,36.3425743 12.3062585,36.3386139 12.5055102,36.3118812 C13.709898,36.149505 14.8038095,35.9326733 15.8873639,35.6138614 C16.1502381,35.5361386 16.4481293,35.3757426 16.6158163,35.5643564 C16.6814116,35.6386139 16.7055782,35.8717822 16.7287585,36.0514851 C16.8885544,37.2717822 17.0296088,38.5034653 17.1982823,39.690099 C17.9770408,38.9678218 18.9802041,38.3430693 20.5801361,38.4232673 C22.0237245,38.4960396 23.0722619,39.2742574 23.7518878,40.1772277 C24.1134014,40.6579208 24.3797279,41.2128713 24.5770068,41.8183168 C24.8556633,42.6717822 25.0154592,43.5633663 24.9656463,44.7094059 C24.9035034,46.1237624 24.3693707,47.1757426 23.590119,47.9579208 C23.204932,48.3435644 22.7339286,48.6415842 22.1820408,48.8668317 C21.4634524,49.1608911 20.6358673,49.3405941 19.6090306,49.2891089 C19.0107823,49.2594059 18.4934184,49.0960396 18.0559524,48.899505 C17.6105952,48.699505 17.2347789,48.4460396 16.8584694,48.1524752 C16.6759864,48.560396 16.4727891,49.000495 16.2597279,49.4519802 C16.1921599,49.5960396 16.1102891,49.7920792 16.0170748,49.8415842 C15.9307653,49.8876238 15.7290476,49.8841584 15.547551,49.9064356 C15.2930612,49.9391089 15.0982483,50.0262376 14.9493027,49.8905941 C14.8684184,49.8163366 14.8486905,49.5737624 14.8195918,49.3539604 C14.4319388,46.4544554 14.0502041,43.3826733 13.6867177,40.5351485 C13.7138435,40.6668317 13.8692007,40.6608911 13.9619218,40.5836634 C13.8938605,40.549505 13.8371429,40.5029703 13.7838776,40.4539604 L13.7838776,40.4539604 Z M18.9136224,40.3727723 C17.355119,40.4762376 17.6017177,42.7084158 17.7807483,44.1737624 C17.9109524,45.2371287 18.1245068,46.5054455 18.6221429,47.1445545 C18.7380442,47.2945545 18.9091837,47.4559406 19.0591156,47.5356436 C19.4635374,47.75 20.2023469,47.7074257 20.5964116,47.4707921 C21.4590136,46.950495 21.2410204,45.0193069 21.0817177,43.8321782 C21.0052721,43.2628713 20.9031803,42.6683168 20.7902381,42.2405941 C20.5964116,41.5019802 20.2965476,40.5851485 19.5444218,40.3891089 C19.3663776,40.3415842 19.0832823,40.3589109 18.9461735,40.3727723 C18.9353231,40.3737624 18.9244728,40.3717822 18.9136224,40.3727723 L18.9136224,40.3727723 Z" id="Fill-21"></path>
                <path d="M37.2793027,46.5925743 C37.2467517,46.4688119 37.297551,46.4475248 37.2793027,46.3336634 C37.197432,46.3014851 37.2072959,46.1876238 37.1984184,46.1227723 C37.1678401,45.9108911 37.092381,45.5425743 37.2146939,45.4074257 C37.3088946,45.3029703 37.6422959,45.2816832 37.8292177,45.2282178 C38.0304422,45.1712871 38.2346259,45.1316832 38.3312925,44.9529703 C38.4333844,44.7633663 38.3860374,44.4133663 38.3470748,44.0757426 C38.1714966,42.5405941 37.9890136,41.2613861 37.7808844,39.690099 C37.7221939,39.2490099 37.7029592,38.3188119 37.3922449,38.1148515 C37.0904082,37.9168317 36.4980782,38.1311881 36.2603571,38.0009901 C36.1202891,37.9252475 36.1128912,37.6623762 36.0818197,37.4321782 C36.0512415,37.2049505 35.9836735,36.9133663 36.0334864,36.7836634 C36.0813265,36.6569307 36.285017,36.6009901 36.5182993,36.5717822 C37.8045578,36.4133663 38.8619728,36.2148515 39.9810374,35.9054455 C40.1428061,35.8613861 40.3839796,35.7549505 40.5319388,35.8089109 C40.7193537,35.8767327 40.7257653,36.1915842 40.7583163,36.4420792 C40.7943197,36.7247525 40.824898,36.9594059 40.854983,37.2049505 C41.5543367,36.2574257 42.5155782,35.5653465 44.0430102,35.4841584 C45.0718197,35.4287129 45.8397279,35.7633663 46.3408163,36.2960396 C47.3494048,37.3668317 47.4593878,39.2821782 47.700068,41.1356436 C47.782432,41.7707921 47.8514796,42.529703 47.9747789,43.1980198 C48.0206463,43.4455446 48.0783503,43.6861386 48.2662585,43.7673267 C48.4004082,43.8242574 48.5991667,43.8188119 48.799898,43.8158416 C49.0070408,43.8128713 49.225034,43.7732673 49.3345238,43.8321782 C49.4617687,43.9009901 49.4740986,44.150495 49.512568,44.4336634 C49.5480782,44.6985149 49.6205782,44.9886139 49.512568,45.1316832 C49.4242857,45.2465347 49.1185034,45.2717822 48.8329422,45.310396 C47.3425,45.5049505 45.8806633,45.7019802 44.3665476,45.8945545 C44.1115646,45.9272277 43.785068,45.9856436 43.6548639,45.8945545 C43.5172619,45.7990099 43.5236735,45.5554455 43.492602,45.310396 C43.4644898,45.0821782 43.3885374,44.839604 43.4605442,44.6762376 C43.5828571,44.3990099 44.2501531,44.5207921 44.3665476,44.1891089 C44.4484184,43.9569307 44.3640816,43.5742574 44.3344898,43.3282178 C44.1697619,41.9806931 43.9611395,40.549505 43.8008503,39.2356436 C43.7209524,38.5876238 43.6272449,37.7079208 43.0719048,37.5465347 C42.6206293,37.4148515 42.0598639,37.759901 41.8744218,38.0336634 C41.4068707,38.7232673 41.4926871,40.3212871 41.6159864,41.3638614 C41.7037755,42.1054455 41.8260884,43.0094059 41.9553061,43.8648515 C42.0041327,44.1841584 42.0445748,44.500495 42.2305102,44.579703 C42.4746429,44.6831683 42.8780782,44.5188119 43.0881803,44.6762376 C43.2021088,44.7623762 43.2119728,44.9787129 43.249949,45.2613861 C43.2854592,45.5242574 43.355,45.8019802 43.249949,45.9440594 C43.1665986,46.0559406 42.8578571,46.090099 42.6033673,46.1227723 C41.0976361,46.3123762 39.6979422,46.4970297 38.2173639,46.690099 C37.9771769,46.7222772 37.6191156,46.7985149 37.4894048,46.7549505 C37.4109864,46.730198 37.3661054,46.630198 37.2793027,46.5925743 L37.2793027,46.5925743 Z" id="Fill-22"></path>
                <path d="M35.4668027,45.0658416 C35.7745578,45.0069307 35.5407823,44.6039604 35.7745578,44.4490099 C35.8588946,44.3930693 36.0433503,44.390099 36.2110374,44.3678218 C36.5587415,44.3222772 36.9118707,44.219802 36.9720408,44.5960396 C37.0519388,45.1019802 36.8803061,45.709901 36.7451701,46.0732673 C36.7195238,46.0455446 36.6583673,46.0519802 36.6317347,46.0252475 C36.6253231,46.1381188 36.5538095,46.1084158 36.469966,46.1227723 C36.4768707,46.2524752 36.6795748,46.2688119 36.5834014,46.3653465 C36.5291497,46.4207921 36.469966,46.3623762 36.4053571,46.2851485 C36.3412415,46.3014851 36.3220068,46.3633663 36.2273129,46.35 C36.1553061,46.2544554 36.025102,46.2163366 35.9363265,46.1381188 C35.8875,46.1381188 35.8682653,46.1673267 35.8554422,46.2029703 C35.8085884,46.1470297 35.7602551,46.0925743 35.677398,46.0732673 C35.5915816,46.0831683 35.6458333,45.9524752 35.5634694,45.9594059 C35.4480612,46.0123762 35.5501531,46.0618812 35.5476871,46.1712871 C35.4815986,46.3975248 35.274949,46.2985149 35.0944388,46.2361386 C35.0396939,46.1886139 35.0387075,46.0861386 34.9657143,46.0569307 C34.8542517,46.1876238 35.047585,46.2272277 35.0781633,46.35 C35.117619,46.380198 35.2177381,46.35 35.2404252,46.3985149 C35.2438776,46.510396 35.1294558,46.5039604 35.1107143,46.5925743 C35.0155272,46.6188119 35.0273639,46.5366337 34.9494388,46.5445545 C34.952398,46.6321782 35.1462245,46.7039604 35.2562075,46.739604 C35.2754422,46.829703 35.1723639,46.7955446 35.1753231,46.8693069 C35.2468367,46.959901 35.3977551,46.9707921 35.4668027,47.0643564 C35.567415,47.0490099 35.630051,47.0742574 35.6611224,47.1292079 C35.5235204,47.2618812 35.3247619,47.280198 35.1432653,47.3237624 C34.8221939,47.4019802 34.5006293,47.4678218 34.0597109,47.4376238 C33.1611054,47.3767327 32.5707483,46.9574257 32.150051,46.3985149 C32.1461054,46.3935644 32.1204592,46.35 32.1175,46.35 C32.082483,46.3470297 31.867449,46.6287129 31.8102381,46.690099 C31.4936054,47.0326733 31.1281463,47.3331683 30.7419728,47.5673267 C30.1456973,47.929703 29.2978912,48.2480198 28.282398,48.1851485 C27.5356973,48.1386139 26.9478061,47.8455446 26.535,47.4376238 C26.0871769,46.9950495 25.7956973,46.360396 25.8070408,45.569802 C25.817398,44.8212871 26.1586905,44.2074257 26.535,43.7509901 C26.9231463,43.280198 27.400068,42.9019802 27.8942517,42.5653465 C28.9220748,41.8643564 30.0569218,41.3242574 31.2272789,40.8118812 C31.1143367,39.7470297 31.0295068,38.7252475 29.7713605,38.7811881 C29.4113265,38.7965347 29.0379762,38.8856436 28.7519218,39.0247525 C28.6463776,39.0752475 28.4959524,39.1391089 28.4925,39.1707921 C28.4895408,39.2064356 28.7016156,39.3554455 28.7519218,39.4143564 C28.9615306,39.6579208 29.1568367,40.0391089 29.1080102,40.5188119 C29.0271259,41.3074257 28.2666156,41.859901 27.2304082,41.7851485 C26.3347619,41.7212871 25.8055612,41.1044554 25.7582143,40.1935644 C25.7271429,39.589604 26.0151701,39.0782178 26.324898,38.7153465 C27.1953912,37.6955446 28.9038265,37.1539604 30.5802041,37.0757426 C32.2472109,36.9970297 33.6681122,37.4846535 34.3018707,38.4881188 C34.4971769,38.7975248 34.6051871,39.1881188 34.6905102,39.6415842 C34.8483333,40.4792079 34.9356293,41.4227723 35.062381,42.370297 C35.1541156,43.0579208 35.235,43.7376238 35.3213095,44.4490099 C35.3459694,44.6539604 35.3573129,44.8821782 35.4668027,45.0658416 L35.4668027,45.0658416 Z M31.0497279,42.5653465 C30.6931463,42.7762376 30.3479082,42.9782178 30.0786224,43.1980198 C29.7235204,43.4891089 29.262381,43.9222772 29.1563435,44.4173267 C29.0754592,44.7960396 29.1795238,45.1841584 29.3343878,45.4074257 C29.4285884,45.5445545 29.6480612,45.7168317 29.8359694,45.7648515 C30.4292857,45.9148515 30.9806803,45.5841584 31.2114966,45.2450495 C31.6662245,44.5767327 31.5685714,43.2985149 31.4378741,42.3539604 C31.3540306,42.3509901 31.1853571,42.4841584 31.0497279,42.5653465 L31.0497279,42.5653465 Z" id="Fill-23"></path>
            </g>
        </g>
    </g>
</svg>