<?xml version="1.0" encoding="UTF-8" standalone="no"?>
<svg width="129px" height="40px" viewBox="0 0 129 40" version="1.1" xmlns="http://www.w3.org/2000/svg" xmlns:xlink="http://www.w3.org/1999/xlink">
    <!-- Generator: Sketch 3.8.3 (29802) - http://www.bohemiancoding.com/sketch -->
    <title>ico-spotlight-white</title>
    <desc>Created with Sketch.</desc>
    <defs></defs>
    <g id="logos-white" stroke="none" stroke-width="1" fill="none" fill-rule="evenodd">
        <g id="ico-spotlight-white" transform="translate(-46.000000, -20.000000)" fill="#FFFFFF">
            <g transform="translate(46.000000, 20.000000)">
                <g>
                    <path d="M1.31513527,35.9695258 L1.31513527,33.2639588 L2.73974396,33.2639588 C3.715657,33.2639588 4.28774396,33.7204536 4.28774396,34.5998351 L4.28774396,34.6223093 C4.28774396,35.4350928 3.7268744,35.9695258 2.71730918,35.9695258 L1.31513527,35.9695258 L1.31513527,35.9695258 Z M5.60017874,34.5777732 L5.60017874,34.5330309 C5.60017874,33.8206598 5.36461353,33.2305567 4.94957005,32.8185979 C4.47843961,32.3507629 3.74930918,32.0835464 2.85191787,32.0835464 L0.0137101449,32.0835464 L0.0137101449,39.877567 L1.31513527,39.877567 L1.31513527,37.1274639 L2.57148309,37.1274639 C2.59391787,37.1274639 2.62736232,37.1274639 2.65021256,37.1163299 L4.32139614,39.877567 L5.82452657,39.877567 L3.973657,36.8602474 C4.92713527,36.5262268 5.60017874,35.7802474 5.60017874,34.5777732 Z M8.35949082,36.5373402 L11.6015246,36.5373402 L11.6015246,35.368268 L8.35949082,35.368268 L8.35949082,33.2525979 L12.0165681,33.2525979 L12.0165681,32.0835258 L7.06969855,32.0835258 L7.06969855,39.8775464 L12.0726551,39.8775464 L12.0726551,38.7084742 L8.35949082,38.7084742 L8.35949082,36.5373402 Z M17.6813507,34.7225361 C17.6813507,35.5909897 17.0978386,36.1808866 16.0996986,36.1808866 L14.966742,36.1808866 L14.966742,33.2639794 L16.0996986,33.2639794 C17.0978386,33.2639794 17.6813507,33.7759381 17.6813507,34.7111959 L17.6813507,34.7225361 Z M16.1782203,32.083567 L13.6655246,32.083567 L13.6655246,39.8775876 L14.966742,39.8775876 L14.966742,37.3501649 L16.0996986,37.3501649 C17.7262203,37.3278969 19.0050029,36.4260412 19.0050029,34.700268 L19.0050029,34.6777938 C19.0050029,33.0633608 17.8942734,32.083567 16.1782203,32.083567 Z M25.5109652,36.0250928 C25.5109652,37.7063299 24.6247913,38.8085979 23.3906705,38.8085979 C22.1569652,38.8085979 21.2481488,37.684268 21.2481488,36.0139588 L21.2481488,35.9360206 C21.2481488,34.2547835 22.1345304,33.1525155 23.3684435,33.1525155 C24.6135739,33.1525155 25.5109652,34.2772577 25.5109652,35.9471546 L25.5109652,36.0250928 Z M23.3906705,31.9611753 C21.3380957,31.9611753 19.9022696,33.6201443 19.9022696,35.9360206 L19.9022696,36.0473608 C19.9022696,38.3521031 21.3266705,39.9999381 23.3684435,39.9999381 C25.4212261,39.9999381 26.8570522,38.3409691 26.8570522,36.0250928 L26.8570522,35.9137526 C26.8570522,33.6090103 25.4322357,31.9611753 23.3906705,31.9611753 Z M29.5154285,35.9695258 L29.5154285,33.2639588 L30.9398295,33.2639588 C31.9159502,33.2639588 32.4880372,33.7204536 32.4880372,34.5998351 L32.4880372,34.6223093 C32.4880372,35.4350928 31.9269599,35.9695258 30.9176024,35.9695258 L29.5154285,35.9695258 Z M33.800472,34.5777732 L33.800472,34.5330309 C33.800472,33.8206598 33.5649068,33.2305567 33.1498633,32.8185979 C32.6785251,32.3507629 31.9496024,32.0835464 31.0520034,32.0835464 L28.2140034,32.0835464 L28.2140034,39.877567 L29.5154285,39.877567 L29.5154285,37.1274639 L30.7715686,37.1274639 C30.7942111,37.1274639 30.8276556,37.1274639 30.8502981,37.1163299 L32.5216894,39.877567 L34.0248198,39.877567 L32.1739502,36.8602474 C33.1274285,36.5262268 33.800472,35.7802474 33.800472,34.5777732 Z M34.4956594,33.2860825 L36.5596594,33.2860825 L36.5596594,39.8776289 L37.8610845,39.8776289 L37.8610845,33.2860825 L39.9250845,33.2860825 L39.9250845,32.0836082 L34.4956594,32.0836082 L34.4956594,33.2860825 Z M41.2712754,39.8775258 L42.5724928,39.8775258 L42.5724928,32.0835052 L41.2712754,32.0835052 L41.2712754,39.8775258 Z M49.504529,37.2833402 L46.0495725,32.0835464 L44.8380942,32.0835464 L44.8380942,39.877567 L46.1168768,39.877567 L46.1168768,34.5218969 L49.6729976,39.877567 L50.7720942,39.877567 L50.7720942,32.0835464 L49.504529,32.0835464 L49.504529,37.2833402 Z M55.7412739,36.6821031 L57.3904382,36.6821031 L57.3904382,38.3967423 C57.042699,38.6416907 56.5491338,38.8084948 55.9992739,38.8084948 C54.6644043,38.8084948 53.6997087,37.7621031 53.6997087,36.0029278 L53.6997087,35.9361237 C53.6997087,34.3216907 54.653187,33.1746804 55.9319696,33.1746804 C56.7284043,33.1746804 57.2221773,33.475299 57.6708729,33.8763299 L58.4448729,32.852 C57.749187,32.2728247 57.0200565,31.9722062 55.9544043,31.9722062 C53.8457425,31.9722062 52.3536217,33.6534433 52.3536217,35.9472577 L52.3536217,36.0363299 C52.3536217,38.4301443 53.8120903,39.9889072 55.9433947,39.9889072 C57.0537087,39.9889072 57.9625251,39.5658144 58.6243512,39.0425155 L58.6243512,35.546433 L55.7412739,35.546433 L55.7412739,36.6821031 Z M0,22.3079175 L1.46033816,20.506268 C2.54697101,21.4792577 3.75761836,22.2252371 5.30208696,22.2252371 C6.70197585,22.2252371 7.59915942,21.4594639 7.59915942,20.3815258 L7.59915942,20.361732 C7.59915942,19.4489485 7.1182657,18.8477113 4.8018744,17.9998763 C2.02390821,16.9635876 0.584342995,15.9470928 0.584342995,13.6258557 L0.584342995,13.5846186 C0.584342995,11.2000825 2.50500966,9.52461856 5.21816425,9.52461856 C6.90804348,9.52461856 8.47577778,10.061732 9.81210145,11.2229691 L8.43381643,13.0666804 C7.43297585,12.2588454 6.32370048,11.698433 5.15688406,11.698433 C3.8396715,11.698433 3.0262029,12.4242062 3.0262029,13.3786392 L3.0262029,13.3980206 C3.0262029,14.4141031 3.57045411,14.9514227 6.05448309,15.9054433 C8.76784541,16.9404948 10.0202464,18.0602887 10.0202464,20.1747216 L10.0202464,20.2161649 C10.0202464,22.7644124 8.01752657,24.4025567 5.27944444,24.4025567 C3.4026087,24.4025567 1.58476812,23.760701 0,22.3079175 Z M12.5394232,9.71006186 L17.215829,9.71006186 C20.410085,9.71006186 22.4780319,11.533567 22.4780319,14.5383093 L22.4780319,14.579134 C22.4780319,17.791299 20.096829,19.4700619 17.0685488,19.511299 L14.9605101,19.511299 L14.9605101,24.2152165 L12.5394232,24.2152165 L12.5394232,9.71006186 Z M17.0685488,17.336866 C18.9283507,17.336866 20.0129063,16.2374845 20.0129063,14.6209897 L20.0129063,14.6011959 C20.0129063,12.8589278 18.9283507,11.9059381 17.0685488,11.9059381 L14.9605101,11.9059381 L14.9605101,17.336866 L17.0685488,17.336866 Z M108.694839,11.9489072 L104.853921,11.9489072 L104.853921,24.2150928 L102.432834,24.2150928 L102.432834,11.9489072 L98.5892159,11.9489072 L98.5892159,9.71014433 L108.694839,9.71014433 L108.694839,11.9489072 Z M96.2732401,24.2150928 L93.8519454,24.2150928 L93.8519454,18.0410722 L88.1092643,18.0410722 L88.1092643,24.2150928 L85.6892159,24.2150928 L85.6892159,9.71014433 L88.1092643,9.71014433 L88.1092643,15.8023093 L93.8519454,15.8023093 L93.8519454,9.71014433 L96.2732401,9.71014433 L96.2732401,24.2150928 L96.2732401,24.2150928 Z M82.501815,22.6612784 C81.269356,23.634268 79.5794768,24.4239588 77.5127763,24.4239588 C73.5451435,24.4239588 70.8317812,21.5204536 70.8317812,17.066433 L70.8317812,16.900866 C70.8317812,12.6328247 73.6080855,9.50169072 77.5325106,9.50169072 C79.5152884,9.50169072 80.8732159,10.0618969 82.1667473,11.1390103 L80.7271821,13.0439588 C79.8914865,12.2994227 78.9720758,11.7412784 77.4915879,11.7412784 C75.110385,11.7412784 73.3365831,13.8750928 73.3365831,16.8788041 L73.3365831,17.0039588 C73.3365831,20.2788041 75.1324043,22.2251959 77.6158101,22.2251959 C78.6390855,22.2251959 79.5574575,21.9163299 80.2047425,21.4594227 L80.2047425,18.2672577 L77.134501,18.2672577 L77.134501,16.1546804 L82.501815,16.1546804 L82.501815,22.6612784 L82.501815,22.6612784 Z M67.9019647,24.2150928 L65.4810855,24.2150928 L65.4810855,9.70993814 L67.9019647,9.70993814 L67.9019647,24.2150928 L67.9019647,24.2150928 Z M62.8462449,24.2150928 L54.1583754,24.2150928 L54.1583754,9.71014433 L56.5817473,9.71014433 L56.5817473,21.9985979 L62.8462449,21.9985979 L62.8462449,24.2150928 L62.8462449,24.2150928 Z M51.2030082,11.9489072 L47.3604285,11.9489072 L47.3604285,24.2150928 L44.9403802,24.2150928 L44.9403802,11.9489072 L41.0986314,11.9489072 L41.0986314,9.71014433 L51.2030082,9.71014433 L51.2030082,11.9489072 L51.2030082,11.9489072 Z M33.2688923,23.2315876 C29.6973995,23.2315876 26.803728,20.3596289 26.803728,16.8159175 C26.803728,13.2732371 29.6973995,10.3992165 33.2688923,10.3992165 C36.8364382,10.3992165 39.7296942,13.2732371 39.7296942,16.8159175 C39.7296942,20.3596289 36.8364382,23.2315876 33.2688923,23.2315876 Z M33.2689546,13.4872371 C31.4249401,13.4872371 29.9265874,14.9765155 29.9265874,16.8175464 C29.9265874,18.6540412 31.4249401,20.1466186 33.2689546,20.1466186 C35.1133845,20.1466186 36.6096599,18.6540412 36.6096599,16.8175464 C36.6096599,14.9765155 35.1133845,13.4872371 33.2689546,13.4872371 Z M116.1731,0.0138556701 C115.911361,0.0138556701 32.4629019,7.6734433 32.4629019,7.6734433 C32.421356,7.6763299 32.3303705,7.68705155 32.2410469,7.69839175 C32.1263802,7.71241237 32.014414,7.72705155 32.014414,7.72705155 C27.4967135,8.33591753 24.0137135,12.1689072 24.0137135,16.8159175 C24.0137135,21.5837526 27.6732836,25.5012784 32.3573754,25.9563299 L32.3548826,25.9569485 C32.3548826,25.9569485 115.911361,31.5322062 116.1731,31.5322062 C123.16652,31.5322062 128.836496,25.1223093 128.836496,15.774268 C128.836496,6.42478351 123.16652,0.0138556701 116.1731,0.0138556701 L116.1731,0.0138556701 L116.1731,0.0138556701 Z"></path>
                </g>
            </g>
        </g>
    </g>
</svg>