<?xml version="1.0" encoding="utf-8"?>
<!-- Generator: Adobe Illustrator 23.0.1, SVG Export Plug-In . SVG Version: 6.00 Build 0)  -->
<svg version="1.1" id="Capa_1" xmlns="http://www.w3.org/2000/svg" xmlns:xlink="http://www.w3.org/1999/xlink" x="0px" y="0px"
	 viewBox="0 0 485.7 485.7" style="enable-background:new 0 0 485.7 485.7;" xml:space="preserve">
<style type="text/css">
	.st0{fill:#2D2D2D;}
</style>
<g>
	<g>
		<path class="st0" d="M477.7,66.8c-4.4,0-8,3.6-8,8v368h-456c-4.4,0-8,3.6-8,8s3.6,8,8,8h464c4.4,0,8-3.6,8-8v-376
			C485.7,70.4,482.1,66.8,477.7,66.8z"/>
	</g>
</g>
<g>
	<g>
		<path class="st0" d="M149.7,234.8h-96c-4.4,0-8,3.6-8,8v176c0,4.4,3.6,8,8,8h96c4.4,0,8-3.6,8-8v-176
			C157.7,238.4,154.1,234.8,149.7,234.8z M141.7,410.8h-80v-160h80V410.8z"/>
	</g>
</g>
<g>
	<g>
		<path class="st0" d="M293.7,138.8h-96c-4.4,0-8,3.6-8,8v272c0,4.4,3.6,8,8,8h96c4.4,0,8-3.6,8-8v-272
			C301.7,142.4,298.1,138.8,293.7,138.8z M285.7,410.8h-80v-256h80V410.8z"/>
	</g>
</g>
<g>
	<g>
		<path class="st0" d="M437.7,58.8h-96c-4.4,0-8,3.6-8,8v352c0,4.4,3.6,8,8,8h96c4.4,0,8-3.6,8-8v-352
			C445.7,62.4,442.1,58.8,437.7,58.8z M429.7,410.8h-80v-336h80V410.8z"/>
	</g>
</g>
<g>
	<g>
		<path class="st0" d="M246.5,26.9c-0.6-0.1-1.1-0.1-1.7,0l-72,8c-4.4,0.5-7.6,4.4-7.1,8.8c0.2,1.8,1,3.5,2.3,4.8l26.3,26.3
			l-60.7,60.7l-18.3-18.3c-3.1-3.1-8.2-3.1-11.3,0l-96,96c-4.4,0-8,1.2-8,5.7s3.6,8,8,5.7c3.1,3.1,8.2,3.1,11.3,0l90.3-90.3
			l18.3,18.3c3.1,3.1,8.2,3.1,11.3,0l66.3-66.3l26.3,26.3c3.1,3.1,8.2,3.1,11.3,0c1.3-1.3,2.1-3,2.3-4.8l8-72
			C254.1,31.3,250.9,27.3,246.5,26.9z M231.5,89.4l-40.5-40.5l45.5-5.1L231.5,89.4z"/>
	</g>
</g>
<g>
	<g>
		<path class="st0" d="M85.7,362.8c-4.4,0-8,3.6-8,8v16c0,4.4,3.6,8,8,8s8-3.6,8-8v-16C93.7,366.4,90.1,362.8,85.7,362.8z"/>
	</g>
</g>
<g>
	<g>
		<path class="st0" d="M85.7,298.8c-4.4,0-8,3.6-8,8v32c0,4.4,3.6,8,8,8s8-3.6,8-8v-32C93.7,302.4,90.1,298.8,85.7,298.8z"/>
	</g>
</g>
<g>
	<g>
		<path class="st0" d="M229.7,362.8c-4.4,0-8,3.6-8,8v16c0,4.4,3.6,8,8,8s8-3.6,8-8v-16C237.7,366.4,234.1,362.8,229.7,362.8z"/>
	</g>
</g>
<g>
	<g>
		<path class="st0" d="M229.7,250.8c-4.4,0-8,3.6-8,8v80c0,4.4,3.6,8,8,8s8-3.6,8-8v-80C237.7,254.4,234.1,250.8,229.7,250.8z"/>
	</g>
</g>
<g>
	<g>
		<path class="st0" d="M373.7,362.8c-4.4,0-8,3.6-8,8v16c0,4.4,3.6,8,8,8s8-3.6,8-8v-16C381.7,366.4,378.1,362.8,373.7,362.8z"/>
	</g>
</g>
<g>
	<g>
		<path class="st0" d="M373.7,170.8c-4.4,0-8,3.6-8,8v160c0,4.4,3.6,8,8,8s8-3.6,8-8v-160C381.7,174.4,378.1,170.8,373.7,170.8z"/>
	</g>
</g>
</svg>
