<?xml version="1.0" encoding="utf-8"?>
<!-- Generator: Adobe Illustrator 23.0.1, SVG Export Plug-In . SVG Version: 6.00 Build 0)  -->
<svg version="1.1" id="Layer_1" xmlns="http://www.w3.org/2000/svg" xmlns:xlink="http://www.w3.org/1999/xlink" x="0px" y="0px"
	 viewBox="0 0 512 512" style="enable-background:new 0 0 512 512;" xml:space="preserve">
<style type="text/css">
	.st0{fill:#2D2D2D;}
</style>
<g id="outline">
	<path class="st0" d="M75.9,156.4l-6.2,1.9c-4.2,1.3-6.6,5.7-5.4,10c0.7,2.2,2.3,4.1,4.4,5l17.6,7.8c13.9,6.2,28.7,10.1,43.8,11.6
		c-7.5,6.7-13.6,14.8-18.1,23.8l-2,4c-2,4-0.4,8.8,3.6,10.7c1.5,0.8,3.2,1,4.9,0.7l12.1-2c19-3.2,36.3-13.1,48.6-27.9l0.9-1.1
		l0,29.3c-14.3,0.3-27.5,7.6-35.2,19.7l-7.7,11.9c-2.4,3.7-1.3,8.7,2.4,11.1c1,0.7,2.2,1.1,3.5,1.2l37.1,4v3.7l-37.1,4
		c-4.4,0.5-7.6,4.4-7.1,8.8c0.1,1.2,0.6,2.4,1.2,3.5l7.7,11.9c7.7,12.1,21,19.5,35.3,19.7l0,14.2h-72c-4.4,0-8,3.6-8,8v20
		c0,10.1,7.5,18.6,17.5,19.8l12.5,56.2H112c-4.4,0-8,3.6-8,8v18c0,12.1,9.9,22,22,22h124c12.1,0,22-9.9,22-22v-18c0-4.4-3.6-8-8-8
		h-17.7l12.5-56.2c10-1.2,17.5-9.7,17.5-19.8v-20c0-4.4-3.6-8-8-8h-72l0-15.6l55.4-6c2.5-0.3,4.7-1.7,6-3.9l10.4-17.6
		c3.6,2.1,7.7,3.1,11.8,3.1c0,8.8,7.2,16,16,16h13.6l60.4,40.3c7.6,5,16.4,7.7,25.5,7.7H440c4.4,0,8-3.6,8-8v-2c0-21-17-38-38-38
		h-15.6l-60-40l60-40H410c21,0,38-17,38-38v-2c0-4.4-3.6-8-8-8h-44.5c-9.1,0-18,2.7-25.5,7.7L309.6,240H296c-8.8,0-16,7.2-16,16
		c-4.1,0-8.2,1.1-11.8,3.1l-10.4-17.6c-1.3-2.2-3.5-3.6-6-3.9l-55.5-6.1l0-30.7l0.9,1.1c12.4,14.8,29.6,24.7,48.6,27.9l12.1,2
		c4.4,0.7,8.5-2.2,9.2-6.6c0.3-1.7,0-3.4-0.7-4.9l-2-4c-4.5-9-10.6-17.1-18.1-23.8c15.1-1.5,29.9-5.4,43.8-11.6l17.6-7.8
		c4-1.8,5.9-6.5,4.1-10.6c-0.9-2.1-2.8-3.7-5-4.4l-6.2-1.9c-19.5-5.8-40.1-7.4-60.2-4.7c17.8-19.5,31.5-42.4,40.2-67.3l5.7-16.2
		c1.5-4.2-0.7-8.7-4.9-10.2c-2.2-0.8-4.6-0.5-6.7,0.6l-2,1.1c-22.1,12.8-41.5,29.9-57.1,50.1c1.1-31.1-5.9-62-20.2-89.6
		c-1.4-2.6-4.1-4.3-7.1-4.3h-0.1c-3,0-5.7,1.7-7.1,4.4c-13.9,27.9-20.7,58.8-19.7,89.9c-15.6-20.5-35.2-37.6-57.5-50.5l-1.9-1.1
		c-3.8-2.2-8.7-0.9-10.9,2.9c-1.2,2-1.4,4.5-0.6,6.7l5.7,16.2c8.7,24.9,22.4,47.8,40.2,67.3C116,149,95.4,150.6,75.9,156.4z
		 M296,256h16c1.6,0,3.1-0.5,4.4-1.3l62.4-41.6c4.9-3.3,10.7-5,16.6-5h35.7c-2.7,9.5-11.3,16-21.2,16h-18c-1.6,0-3.1,0.5-4.4,1.3
		l-70,46.7h-15c-1.3-3.8-3.6-7.2-6.6-9.9V256z M296,297.9c3-2.7,5.3-6.1,6.6-9.9h15l70,46.7c1.3,0.9,2.9,1.3,4.4,1.3h18
		c9.8,0,18.5,6.5,21.2,16h-35.7c-5.9,0-11.7-1.7-16.6-5l-62.4-41.6c-1.3-0.9-2.9-1.3-4.4-1.3h-16V297.9z M272,280.1
		c0-0.4,0.1-0.8,0-1.1c0.6-4.4,4.6-7.5,9-6.9c4.4,0.6,7.5,4.6,6.9,9c-0.6,4.4-4.6,7.5-9,6.9c-3.9-0.5-6.8-3.8-7-7.7
		C272,280.2,272,280.1,272,280.1L272,280.1z M157.7,259.6l0.7-1c4.8-7.5,12.9-12.1,21.8-12.4l0,15.8L157.7,259.6z M256,464v10
		c0,3.3-2.7,6-6,6H126c-3.3,0-6-2.7-6-6v-10H256z M134.3,392h108.1l-12.4,56h-83.2L134.3,392z M260.3,360v12c0,2.2-1.8,4-4,4h-136
		c-2.2,0-4-1.8-4-4v-12H260.3z M246,253.1l10.2,17.2l-60-6.5l0-16.1L246,253.1z M197.4,280l-1.2,0.1v-0.3L197.4,280z M256.2,289.7
		L246,306.9l-62,6.8c-10.2,1.1-20.1-3.6-25.6-12.2l-0.7-1L256.2,289.7z M169.1,160.7c-24.9-19.8-44.2-45.8-55.8-75.5
		c22.6,16.9,40.9,38.8,53.4,64c2,4,6.8,5.6,10.7,3.6c3.3-1.7,5.1-5.4,4.2-9c-7.8-33.3-5.5-68.2,6.6-100.2
		c12.3,31.8,14.6,66.7,6.5,99.9c-1,4.3,1.6,8.6,5.9,9.6c3.6,0.9,7.3-0.9,9-4.2c12.6-25.1,30.8-46.9,53.2-63.7
		c-11.6,29.6-30.9,55.7-55.8,75.5c-3.5,2.7-4,7.8-1.3,11.2c2.2,2.7,5.8,3.7,9.1,2.5c20.7-7.7,43-9.9,64.7-6.4
		c-19.3,7.8-40.3,10.8-61.1,8.6c-4.4-0.5-8.3,2.7-8.8,7.1c-0.4,3.6,1.7,7.1,5.1,8.3c11.3,4.2,21.1,11.5,28.5,21
		c-13.3-3.3-25.3-10.8-34.1-21.3l-15.1-18.1c-1.5-1.8-3.8-2.8-6.1-2.8h0c-2.4,0-4.6,1.1-6.1,2.9l-15,18c-8.8,10.6-20.7,18-34.1,21.3
		c7.3-9.5,17.2-16.8,28.5-21c4.1-1.6,6.2-6.2,4.7-10.3c-1.3-3.4-4.7-5.5-8.3-5.1c-20.8,2.2-41.7-0.7-61.1-8.6
		c21.8-3.5,44.1-1.3,64.7,6.4c4.1,1.6,8.7-0.5,10.3-4.7C172.9,166.6,171.9,162.9,169.1,160.7L169.1,160.7z"/>
</g>
</svg>
