<?xml version="1.0" encoding="utf-8"?>
<!-- Generator: Adobe Illustrator 23.0.1, SVG Export Plug-In . SVG Version: 6.00 Build 0)  -->
<svg version="1.1" id="Capa_1" xmlns="http://www.w3.org/2000/svg" xmlns:xlink="http://www.w3.org/1999/xlink" x="0px" y="0px"
	 viewBox="0 0 512 512" style="enable-background:new 0 0 512 512;" xml:space="preserve">
<style type="text/css">
	.st0{fill:#2D2D2D;}
</style>
<path class="st0" d="M487.8,302.3c-7.8-12-23.4-15.2-34.9-7.4l-6.1,3.2l-31.4-25.2c-30.8-24.6-68.1-38.2-106-40.4l-4.1,0v-24.4
	l6.1,3c5.7,2.8,11.9,4.1,18.5,4.1c0,0,0,0,0,0c5.7,0,11.5-1,17.3-3.1c2.3-0.8,3.8-3.3,3.3-5.7c-0.8-4.2-2.1-8.1-3.6-11.7l-2.2-5
	l5.4-0.9c13.8-2.2,26.8-8.2,37.6-17.5c1.2-1,1.8-2.4,1.8-3.9s-0.7-2.9-1.8-3.9c-8.3-7.2-17.9-12.4-28.5-15.5l-5.2-1.5l2.7-4.7
	c5.5-9.5,8.9-20.6,9.7-32.1c0.1-1.5-0.4-3-1.5-4c-0.9-0.9-2.3-1.5-3.6-1.5c-0.1,0-0.2,0-0.4,0c-11.7,0.8-23.1,4.4-33.1,10.3
	l-5.6,3.3l-0.8-6.4c-2.2-17.2-8.1-33.5-17-47.2c-0.9-1.4-2.5-2.3-4.3-2.3c-1.8,0-3.3,0.9-4.3,2.4c-9,14-14.7,29.8-17,47.1l-0.8,6.4
	l-5.6-3.3c-10-5.9-21.5-9.5-33.2-10.3c-0.1,0-0.2,0-0.4,0c-1.4,0-2.7,0.5-3.6,1.5c-1,1-1.6,2.5-1.5,4c0.9,11.6,4.1,22.4,9.7,32.1
	l2.7,4.7l-5.2,1.5c-10.5,3.1-20.1,8.3-28.5,15.5c-1.2,1-1.8,2.4-1.8,3.9c0,1.5,0.7,2.9,1.7,3.9c10.8,9.3,23.8,15.3,37.6,17.5
	l5.4,0.9l-2.2,5c-1.5,3.5-2.8,7.5-3.6,11.7c-0.5,2.5,0.9,4.9,3.3,5.8c5.8,2,11.6,3.1,17.3,3.1c6.7,0,12.9-1.4,18.5-4.2l6.1-3v24.4
	l-4.1,0h-0.7c-29.7,1.2-59.2,9.5-85.9,24.9c-3-1.1-5.8-2-8.1-2.7c-22.4-6.7-47.4-3.8-68.4,8l-53.9,30.2c-6.7-6.8-17.4-8.6-26-3.5
	l-17.5,10.1c-10.3,5.9-13.8,19.1-7.9,29.4l63.7,110.4c5.9,10.3,19.1,13.8,29.4,7.9l17.5-10.1c10.1-5.8,13.7-18.7,8.1-28.9l13.2-11.7
	c3.8-3.4,9.2-4.5,14.1-3l60.6,19.5c7.5,2.9,15.9,4.1,24.3,3.3l121.1-12.4c8.8-0.9,17.3-4,24.6-9.1c89-61.3,83.7-57.5,84.5-58.2
	C493.1,327.8,494.8,313.1,487.8,302.3z M286.6,200.9c-4.8,2.7-10.1,4.1-15.8,4.1c-1.5,0-3-0.1-4.6-0.3l-5.6-0.7l2.3-5.2
	c1.8-4.2,4.3-7.9,7.1-10.8c1.5-1.6,1.9-3.9,1.1-5.8c-0.8-1.8-2.7-3-4.7-3c-0.1,0-0.2,0-0.2,0c-1.3,0.1-2.6,0.1-3.9,0.1
	c-11.2,0-22.3-2.9-32.1-8.5l-6.5-3.7l6.5-3.7c8.2-4.6,17.1-7.4,26.4-8.1c1.9-0.2,3.6-1.4,4.3-3.1c0.7-1.8,0.4-3.9-0.9-5.4
	c-6.3-7.3-10.9-15.8-13.5-25.3l-2-7.2l7.2,2c10.6,2.9,20,8.3,27.8,15.9c1,0.9,2.3,1.5,3.6,1.5c0.7,0,1.3-0.1,2-0.4
	c1.9-0.8,3.1-2.7,3.1-4.8c-0.1-14.9,2.7-29.9,8.2-43.2l3.9-9.6l3.9,9.6c5.4,13.1,8.2,28,8.2,43.1c0,2.1,1.2,4,3.1,4.8
	c0.6,0.3,1.3,0.4,2,0.4c1.3,0,2.6-0.5,3.6-1.4c7.9-7.7,17.2-13,27.8-16l7.2-2l-2,7.2c-2.6,9.3-7.1,17.8-13.5,25.2
	c-1.3,1.5-1.6,3.5-0.9,5.4c0.7,1.7,2.4,3,4.3,3.1c9.3,0.8,18.2,3.5,26.5,8.1l6.6,3.7l-6.6,3.7c-9.9,5.5-20.9,8.4-31.9,8.4
	c-1.3,0-2.7,0-4.1-0.1c-0.1,0-0.2,0-0.2,0c-2.1,0-3.9,1.1-4.7,3c-0.9,1.9-0.4,4.2,1,5.7c2.9,2.9,5.4,6.6,7.2,10.8l2.3,5.3l-5.7,0.6
	c-1.5,0.2-2.9,0.2-4.4,0.2c-5.9,0-11.2-1.4-16-4.1c-3.8-2.3-7-5.2-9.5-8.7c-1-1.4-2.6-2.2-4.2-2.2c-1.7,0-3.2,0.8-4.2,2.1l-0.1,0.1
	C293.3,196,290,199,286.6,200.9z M406,284.7l26.3,21l-33,17.3c-10.8,5.7-22.3,9.3-34.2,10.7l0.2-2.9v-1.2
	c-1.7-17.4-14.4-31.3-31-33.7c-0.1,0-0.1,0-0.2,0l-60.2-7.3c-19.1-2.9-21.7-11.2-51.2-24C282.1,235.7,353.9,243.2,406,284.7z
	 M473.9,325.2l-83.1,57.1c-5.3,3.6-11.4,5.9-17.7,6.5L252,401.3c-8.3,0.8-13.4-1.1-17.9-2.6l-60.8-19.6c-9.9-3.2-20.8-0.9-28.6,6
	l-10.8,9.6l-24.3-42c-2.1-3.6-6.7-4.8-10.2-2.7c-3.6,2.1-4.8,6.7-2.8,10.2c4.2,7.2,23.2,40.1,31.6,54.8c1.8,3.1,0.7,7.1-2.4,8.9
	L108.3,434c-3.1,1.8-7.1,0.7-8.9-2.4L35.8,321.2c-1.8-3.1-0.7-7.1,2.4-8.9l17.5-10.1c3.1-1.8,7.1-0.7,8.9,2.4L79,329.8
	c2.1,3.6,6.7,4.8,10.3,2.8c3.6-2.1,4.8-6.7,2.7-10.3l-9.7-16.8l53.1-29.8c17.5-9.8,38.2-12.3,56.8-6.7
	c46.6,13.9,52.2,30.3,79.8,34.4c0.1,0,0.1,0,0.2,0l60.2,7.3c9.5,1.5,16.9,9.5,18.1,19.7l-0.3,4.3l-76.5,5c-4.1,0.3-7.3,3.8-7,8
	c0.3,4,3.6,7,7.5,7h0.5c81-7.3,98.9-1.2,131.8-18.5c57.3-30.1,54-28.3,54.8-28.9c4.6-3.3,10.9-2,14.1,3
	C478.3,315.1,477.6,321.3,473.9,325.2z"/>
</svg>
