<?xml version="1.0" encoding="utf-8"?>
<!-- Generator: Adobe Illustrator 23.0.1, SVG Export Plug-In . SVG Version: 6.00 Build 0)  -->
<svg version="1.1" id="Capa_1" xmlns="http://www.w3.org/2000/svg" xmlns:xlink="http://www.w3.org/1999/xlink" x="0px" y="0px"
	 viewBox="0 0 480 480" style="enable-background:new 0 0 480 480;" xml:space="preserve">
<style type="text/css">
	.st0{fill:#2D2D2D;}
</style>
<g>
	<g>
		<path class="st0" d="M476,247.4L408,208l68-39.4c2.5-1.4,4-4.1,4-6.9c0-2.9-1.5-5.5-4-6.9l-152-88c-2.5-1.4-5.5-1.4-8,0L300,76
			c-3.9,2-5.4,6.9-3.4,10.8s6.9,5.4,10.8,3.4c0.2-0.1,0.4-0.2,0.6-0.3l12-6.9l136,78.8l-64,37.1l-96.6-55.9l7.2-10.2
			c2.5-3.6,1.6-8.6-2-11.1c-1.4-0.9-3-1.5-4.6-1.4h-24C271.9,53.8,218.2,0.1,152,0H72c-4.4,0-8,3.6-8,8s3.6,8,8,8h80
			c57.4,0.1,103.9,46.6,104,104v8c0,4.4,3.6,8,8,8h16.6L240,194l-40.6-58H216c4.4,0,8-3.6,8-8v-16c0-26.5-21.5-48-48-48h-40
			c-4.4,0-8,3.6-8,8s3.6,8,8,8h40c17.7,0,32,14.3,32,32v8h-24c-4.4,0-8,3.6-8,8c0,1.6,0.5,3.2,1.4,4.6l7.2,10.2L88,198.8l-64-37.1
			l101.5-58.8c3.9-2,5.4-6.9,3.4-10.8c-2-3.9-6.9-5.4-10.8-3.4c-0.2,0.1-0.4,0.2-0.6,0.3L4,154.8c-3.8,2.2-5.1,7.1-2.9,10.9
			c0.7,1.2,1.7,2.2,2.9,2.9L72,208L4,247.4c-3.8,2.2-5.1,7.1-2.9,10.9c0.7,1.2,1.7,2.2,2.9,2.9l76,44V384c0,2.9,1.5,5.5,4,6.9
			l152,88c0.2,0.1,0.4,0.2,0.6,0.2c0.2,0.1,0.4,0.2,0.7,0.3c1.8,0.7,3.7,0.7,5.5,0c0.2-0.1,0.4-0.2,0.7-0.3s0.4-0.1,0.6-0.2l152-88
			c2.5-1.4,4-4.1,4-6.9v-78.8l76-44c3.8-2.2,5.1-7.1,2.9-10.9C478.2,249.1,477.2,248.1,476,247.4z M24,254.3l64-37.1L224,296
			l-64,37.1L24,254.3z M232,458.1L96,379.4v-64.9l60,34.7c2.5,1.4,5.5,1.4,8,0l68-39.4V458.1z M240,286.8L104,208l89.9-52l39.6,56.6
			c2.5,3.6,7.5,4.5,11.1,2c0.8-0.5,1.4-1.2,2-2l39.6-56.6l89.9,52L240,286.8z M384,379.4l-136,78.7V309.9l68,39.4
			c2.5,1.4,5.5,1.4,8,0l60-34.7V379.4z M320,333.1L256,296l136-78.8l64,37.1L320,333.1z"/>
	</g>
</g>
<g>
	<g>
		<path class="st0" d="M104,64H88c-4.4,0-8,3.6-8,8s3.6,8,8,8h16c4.4,0,8-3.6,8-8S108.4,64,104,64z"/>
	</g>
</g>
<g>
	<g>
		<path class="st0" d="M40,0H24c-4.4,0-8,3.6-8,8s3.6,8,8,8h16c4.4,0,8-3.6,8-8S44.4,0,40,0z"/>
	</g>
</g>
<g>
	<g>
		<path class="st0" d="M120,32H56c-4.4,0-8,3.6-8,8s3.6,8,8,8h64c4.4,0,8-3.6,8-8S124.4,32,120,32z"/>
	</g>
</g>
<g>
	<g>
		<path class="st0" d="M360,344c-4.4,0-8,3.6-8,8v16c0,4.4,3.6,8,8,8s8-3.6,8-8v-16C368,347.6,364.4,344,360,344z"/>
	</g>
</g>
<g>
	<g>
		<path class="st0" d="M328,360c-4.4,0-8,3.6-8,8v16c0,4.4,3.6,8,8,8s8-3.6,8-8v-16C336,363.6,332.4,360,328,360z"/>
	</g>
</g>
</svg>
