<?xml version="1.0" encoding="utf-8"?>
<!-- Generator: Adobe Illustrator 23.0.1, SVG Export Plug-In . SVG Version: 6.00 Build 0)  -->
<svg version="1.1" id="Layer_1" xmlns="http://www.w3.org/2000/svg" xmlns:xlink="http://www.w3.org/1999/xlink" x="0px" y="0px"
	 viewBox="0 0 512 512" style="enable-background:new 0 0 512 512;" xml:space="preserve">
<style type="text/css">
	.st0{fill:#2D2D2D;}
</style>
<g id="Page-1">
	<g>
		<path id="Shape" class="st0" d="M25.6,187.7h68.3c12.1,0,22.5-8.4,25-20.2c19.2,7.5,39.7,11.4,60.3,11.7c8.1,0,15.6,3.8,20.5,10.2
			l29.7,39.7c5.9,7.7,15,12.3,24.7,12.3c17.1,0,30.9-13.9,30.9-31c0-3.3-0.5-6.6-1.5-9.8L270,160.2c-2.4-7.1,0.2-14.9,6.3-19.3
			l18.3-13c8.1-5.7,18.7-6.3,27.4-1.5l0.1,0.1h0.1l133.7,75.6c14.4,8.1,32.5,4,42-9.5s7-32-5.5-42.7l-26.7-22.7l14.1,0.8h1.6
			c15.3-0.1,28.3-11.4,30.4-26.5c0-0.1,0-0.3,0-0.4c2.2-16.7-9.5-32-26.2-34.2l-5.3-0.7c7-9.3,8.2-21.7,3-32.1
			C478,23.5,467.3,17,455.7,17.1H117.9C114.3,6.9,104.7,0,93.9,0H25.6C11.5,0,0,11.5,0,25.6v136.5C0,176.3,11.5,187.7,25.6,187.7
			L25.6,187.7z M483.4,183.2c-4.5,6-12.7,7.7-19.3,4l-133.7-75.6L295.6,92c-7.7-4.4-16.4-6.6-25.2-6.7h-5.8c-4.7,0-8.5,3.8-8.5,8.5
			c0,4.7,3.8,8.5,8.5,8.5h5.8c5.9,0,11.7,1.5,16.8,4.4l5.3,3c-2.7,1.1-5.4,2.6-7.8,4.3l-18.3,13.1c-12.2,8.7-17.3,24.4-12.5,38.6
			l13.5,40.4c0.5,1.4,0.7,2.9,0.7,4.4c0,6-3.8,11.3-9.5,13.2c-5.7,1.9-11.9,0-15.5-4.8l-29.7-39.7c-8.1-10.7-20.7-17-34.1-17.1
			c-0.4,0-36.3-0.2-59.7-13.3V34.1h191.4c12.1,0,23.9,4.3,33.2,12.2l137.1,116.6C487.1,168,488.1,176.9,483.4,183.2L483.4,183.2z
			 M492.1,88.9c2.2,2.9,3.2,6.6,2.6,10.2v0.4c-1.2,6.9-7.3,11.8-14.2,11.5l-36.6-2.1l-43.1-36.6l48.5,6.8l0.4,0.1l33.4,4.7
			C486.8,84.2,490,86,492.1,88.9L492.1,88.9z M469.3,47.9c0,7.1-5.5,12.9-12.5,13.6l-6,0.5l-74.2-10.4L356,34.1h99.7
			c3.6,0,7.1,1.5,9.7,4C467.9,40.7,469.4,44.2,469.3,47.9z M17.1,25.6c0-4.7,3.8-8.5,8.5-8.5h68.3c4.7,0,8.5,3.8,8.5,8.5v136.5
			c0,4.7-3.8,8.5-8.5,8.5H25.6c-4.7,0-8.5-3.8-8.5-8.5V25.6z"/>
		<path class="st0" d="M59.7,85.3c14.1,0,25.6-11.5,25.6-25.6S73.9,34.1,59.7,34.1S34.1,45.6,34.1,59.7S45.6,85.3,59.7,85.3z
			 M59.7,51.2c4.7,0,8.5,3.8,8.5,8.5s-3.8,8.5-8.5,8.5s-8.5-3.8-8.5-8.5S55,51.2,59.7,51.2z"/>
		<path class="st0" d="M384,226.8c0-17.3-12.3-36.9-22.6-50.3c-2.8-3.5-7.1-5.6-11.6-5.6c-4.5,0-8.8,2-11.6,5.6
			c-10.3,13.4-22.6,33.1-22.6,50.3c-0.9,19.8,14.3,36.7,34.1,37.7C369.7,263.5,384.9,246.6,384,226.8z M332.8,226.8
			c2-13.8,8-26.7,17.1-37.3c9.1,10.6,15,23.5,17.1,37.3c0.9,10.4-6.7,19.6-17.1,20.6C339.5,246.4,331.9,237.2,332.8,226.8z"/>
		<path class="st0" d="M287.1,270.4c-10.3,13.4-22.6,33-22.6,50.3c-0.9,19.8,14.3,36.7,34.1,37.7c19.8-1.1,35-17.9,34.1-37.7
			c0-17.3-12.3-36.9-22.6-50.3c-2.8-3.5-7.1-5.6-11.6-5.6S289.9,266.9,287.1,270.4L287.1,270.4z M298.7,341.3
			c-10.4-1.1-17.9-10.3-17.1-20.6c2-13.8,8-26.7,17.1-37.3c9.1,10.6,15,23.5,17.1,37.3C316.6,331.1,309,340.2,298.7,341.3z"/>
		<path class="st0" d="M384,384c19.8-1.1,35-17.9,34.1-37.7c0-17.3-12.3-36.9-22.6-50.3c-2.8-3.5-7.1-5.6-11.6-5.6
			c-4.5,0-8.8,2-11.6,5.6c-10.3,13.4-22.6,33.1-22.6,50.3C349,366.1,364.2,382.9,384,384z M384,309c9.1,10.6,15,23.5,17.1,37.3
			c0.9,10.4-6.7,19.6-17.1,20.6c-10.4-1.1-17.9-10.3-17.1-20.6C369,332.5,374.9,319.6,384,309z"/>
		<path class="st0" d="M497.1,426.2c-5.9-1-11.5-3.3-16.4-6.8c-19.2-13.1-44.4-13.1-63.6,0c-13.7,9.7-31.9,9.7-45.6,0
			c-19.2-13.1-44.5-13.1-63.7,0c-13.7,9.7-32,9.7-45.7,0c-9.3-6.6-20.4-10-31.8-9.8H17.1c-9.4,0-17.1,7.6-17.1,17.1v68.3
			c0,9.4,7.6,17.1,17.1,17.1h477.9c9.4,0,17.1-7.6,17.1-17.1v-51.8C512,434.6,505.6,427.3,497.1,426.2z M494.9,494.9H17.1v-68.3
			h213.3c8.2-0.2,16.2,2.3,22.8,7.2c19.2,13.1,44.5,13.1,63.7,0c13.7-9.6,31.9-9.6,45.6,0c19.2,13.1,44.5,13.1,63.7,0
			c13.6-9.6,31.8-9.6,45.5,0c7,4.9,14.9,8.1,23.3,9.4V494.9z"/>
		<path class="st0" d="M76.8,443.7H42.7c-4.7,0-8.5,3.8-8.5,8.5c0,4.7,3.8,8.5,8.5,8.5h34.1c4.7,0,8.5-3.8,8.5-8.5
			C85.3,447.6,81.5,443.7,76.8,443.7z"/>
		<path class="st0" d="M153.6,460.8h-42.7c-4.7,0-8.5,3.8-8.5,8.5s3.8,8.5,8.5,8.5h42.7c4.7,0,8.5-3.8,8.5-8.5
			S158.3,460.8,153.6,460.8z"/>
		<path class="st0" d="M230.4,443.7h-42.7c-4.7,0-8.5,3.8-8.5,8.5c0,4.7,3.8,8.5,8.5,8.5h42.7c4.7,0,8.5-3.8,8.5-8.5
			C238.9,447.6,235.1,443.7,230.4,443.7z"/>
		<path class="st0" d="M315.7,460.8h-42.7c-4.7,0-8.5,3.8-8.5,8.5s3.8,8.5,8.5,8.5h42.7c4.7,0,8.5-3.8,8.5-8.5
			S320.4,460.8,315.7,460.8z"/>
		<path class="st0" d="M418.1,460.8h-42.7c-4.7,0-8.5,3.8-8.5,8.5s3.8,8.5,8.5,8.5h42.7c4.7,0,8.5-3.8,8.5-8.5
			S422.8,460.8,418.1,460.8z"/>
	</g>
</g>
</svg>
