<?xml version="1.0" encoding="utf-8"?>
<!-- Generator: Adobe Illustrator 23.0.1, SVG Export Plug-In . SVG Version: 6.00 Build 0)  -->
<svg version="1.1" id="bold" xmlns="http://www.w3.org/2000/svg" xmlns:xlink="http://www.w3.org/1999/xlink" x="0px" y="0px"
	 viewBox="0 0 512 512" style="enable-background:new 0 0 512 512;" xml:space="preserve">
<style type="text/css">
	.st0{fill:#2D2D2D;}
</style>
<path class="st0" d="M442,4.7l-40.8,40.8C359.1,16.3,309,0,256,0C114.8,0,0,114.8,0,256c0,25,3.7,49.9,10.9,73.9
	c2.1,6.9,8.4,11.4,15.3,11.4c1.5,0,3.1-0.2,4.6-0.7c8.4-2.6,13.2-11.5,10.7-19.9C35.2,299.6,32,277.9,32,256
	C32,132.5,132.5,32,256,32c44.4,0,86.5,12.9,122.3,36.4L346,100.7c-10,10-2.9,27.3,11.3,27.3h96c8.8,0,16-7.2,16-16V16
	C469.3,1.7,452.1-5.4,442,4.7L442,4.7z"/>
<path class="st0" d="M501.1,182.1c-2.5-8.4-11.5-13.2-19.9-10.7c-8.4,2.6-13.2,11.5-10.7,19.9c6.4,21.1,9.6,42.8,9.6,64.7
	c0,123.5-100.5,224-224,224c-44.3,0-86.4-12.9-122.1-36.3l32.1-32.5c10-10.1,2.8-27.2-11.4-27.2h-96c-4.3,0-8.4,1.7-11.4,4.8
	c-3,3-4.7,7.1-4.6,11.4l1.1,96c0.2,14.2,17.5,21.1,27.4,11.1l40.1-40.5c42,29.1,92,45.3,144.8,45.3c141.2,0,256-114.8,256-256
	C512,231,508.3,206.1,501.1,182.1L501.1,182.1z"/>
<path class="st0" d="M256,234.7c-49.2,0-106.7-11.2-106.7-42.7s57.5-42.7,106.7-42.7s106.7,11.2,106.7,42.7S305.2,234.7,256,234.7z"
	/>
<path class="st0" d="M256,266.7c-46.5,0-82.8-8.1-106.7-22.7v12c0,31.5,57.5,42.7,106.7,42.7s106.7-11.2,106.7-42.7v-12
	C338.8,258.6,302.5,266.7,256,266.7z"/>
<path class="st0" d="M256,330.7c-46.5,0-82.8-8.1-106.7-22.7v12c0,31.5,57.5,42.7,106.7,42.7s106.7-11.2,106.7-42.7v-12
	C338.8,322.6,302.5,330.7,256,330.7z"/>
</svg>
