<?xml version="1.0" encoding="utf-8"?>
<!-- Generator: Adobe Illustrator 23.0.1, SVG Export Plug-In . SVG Version: 6.00 Build 0)  -->
<svg version="1.1" id="Layer_1" xmlns="http://www.w3.org/2000/svg" xmlns:xlink="http://www.w3.org/1999/xlink" x="0px" y="0px"
	 viewBox="0 0 512 512" style="enable-background:new 0 0 512 512;" xml:space="preserve">
<style type="text/css">
	.st0{fill:#2D2D2D;}
</style>
<g id="Outline">
	<path class="st0" d="M384,280c-17.7,0-32-14.3-32-32c0-8.5,3.4-16.6,9.4-22.6l25.4-25.4H48c-17.7,0-32-14.3-32-32s14.3-32,32-32
		h338.7l-25.4-25.4c-12.5-12.5-12.5-32.8,0-45.3s32.8-12.5,45.3,0l0,0l80,80c12.5,12.5,12.5,32.7,0,45.3l-80,80
		C400.7,276.6,392.5,280,384,280z M48,152c-8.8,0-16,7.2-16,16s7.2,16,16,16h358.1c4.4,0,8,3.6,8,8c0,2.1-0.8,4.2-2.3,5.7l-39,39
		c-6.2,6.2-6.2,16.4,0,22.6c6.2,6.2,16.4,6.2,22.6,0l80-80c6.2-6.3,6.2-16.4,0-22.6l-80-80c-6.2-6.2-16.4-6.2-22.6,0
		c-6.2,6.2-6.2,16.4,0,22.6l39,39c3.1,3.1,3.1,8.2,0,11.3c-1.5,1.5-3.5,2.3-5.7,2.3L48,152z"/>
	<path class="st0" d="M128,456c-8.5,0-16.6-3.4-22.6-9.4l-80-80c-12.5-12.5-12.5-32.7,0-45.3l80-80c12.5-12.5,32.8-12.5,45.3,0
		c12.5,12.5,12.5,32.8,0,45.3L125.2,312H464c17.7,0,32,14.3,32,32s-14.3,32-32,32H125.2l25.4,25.4c12.5,12.5,12.5,32.8,0,45.3
		C144.6,452.6,136.5,456,128,456L128,456z M128,248c-4.2,0-8.3,1.7-11.3,4.7l-80,80c-6.2,6.3-6.2,16.4,0,22.6l80,80
		c6.2,6.2,16.4,6.2,22.6,0s6.2-16.4,0-22.6l0,0l-39-39c-3.1-3.1-3.1-8.2,0-11.3c1.5-1.5,3.5-2.3,5.7-2.3H464c8.8,0,16-7.2,16-16
		s-7.2-16-16-16H105.9c-4.4,0-8-3.6-8-8c0-2.1,0.8-4.2,2.3-5.7l39-39c6.2-6.2,6.2-16.4,0-22.6C136.3,249.7,132.2,248,128,248
		L128,248z"/>
</g>
</svg>
